<svg width="284" height="71" viewBox="0 0 284 71" fill="none" xmlns="http://www.w3.org/2000/svg">
<g clip-path="url(#clip0_136_51)">
<path d="M114.444 48.8512C114.444 48.249 114.065 47.7974 113.231 47.6469V47.2705C113.686 47.2705 115.126 47.3458 115.581 47.3458C115.96 47.3458 117.324 47.2705 117.778 47.2705V47.6469C117.021 47.7974 116.642 48.249 116.642 48.8512V56.378C116.642 58.7866 117.93 60.1415 120.734 60.1415C123.084 60.1415 124.979 59.0877 124.979 56.6039V48.7759C124.979 48.249 124.6 47.7974 123.766 47.5716V47.1953C124.069 47.1953 125.282 47.2705 125.736 47.2705C126.115 47.2705 127.404 47.1953 127.707 47.1953V47.5716C126.873 47.7974 126.494 48.1737 126.494 48.7759V56.1522C126.494 59.4641 124.6 61.3458 120.431 61.3458C116.566 61.3458 114.52 59.6146 114.52 56.5286V48.8512H114.444Z" fill="#1E1E1E"/>
<path d="M131.118 60.7436C132.027 60.5931 132.406 60.1415 132.406 59.5393V49.1522C132.406 48.249 131.951 47.8727 131.118 47.6469V47.2705C131.572 47.2705 132.33 47.3458 132.709 47.3458C133.088 47.3458 133.619 47.3458 133.998 47.2705L143.092 57.8834V48.7759C143.092 48.249 142.713 47.7974 141.88 47.5716V47.1953C142.183 47.1953 143.396 47.2705 143.774 47.2705C144.153 47.2705 145.366 47.1953 145.745 47.1953V47.5716C144.911 47.7974 144.457 48.1737 144.457 48.7759V61.2705H143.926C143.547 61.1953 142.941 60.8189 141.956 59.7651L133.77 50.3565V59.5393C133.77 60.0662 134.073 60.5178 134.983 60.7436V61.12C134.68 61.12 133.467 61.0447 133.088 61.0447C132.709 61.0447 131.497 61.12 131.193 61.12V60.7436H131.118Z" fill="#1E1E1E"/>
<path d="M203.042 57.8835H203.421C203.649 58.6361 204.103 59.3888 204.71 59.7652C205.392 60.2168 206.377 60.4426 207.211 60.4426C209.03 60.4426 210.242 59.5394 210.242 58.1093C210.242 56.6039 208.727 55.8512 206.983 54.948C205.619 54.2706 203.042 53.2168 203.042 50.7329C203.042 48.3996 204.861 46.9695 207.666 46.9695C209.56 46.9695 210.47 47.4211 211.682 47.3458V50.206H211.303C210.773 48.5501 209.257 47.948 207.59 47.948C205.695 47.948 205.013 49.0017 205.013 50.0555C205.013 51.5609 206.529 52.3888 208.272 53.1415C210.242 53.9695 212.289 55.0985 212.289 57.5071C212.289 59.7652 210.47 61.4211 207.211 61.4211C205.24 61.4211 204.103 60.8942 203.042 60.7437V57.8835Z" fill="#1E1E1E"/>
<path d="M242.226 55.3996L238.512 49.4533C237.906 48.3995 237.375 47.8727 236.693 47.5716V47.1953C237.224 47.1953 238.588 47.2705 238.967 47.2705C239.346 47.2705 240.786 47.1953 241.316 47.1953V47.5716C240.862 47.6469 240.634 47.8727 240.634 48.249C240.634 48.5501 240.862 49.0017 241.089 49.3028C241.316 49.6791 243.817 53.8189 243.817 53.8189L246.47 49.3028C246.773 48.8512 246.925 48.3996 246.925 48.0985C246.925 47.7974 246.697 47.6469 246.318 47.5716V47.1953C246.773 47.1953 247.683 47.2705 247.986 47.2705C248.289 47.2705 249.35 47.1953 249.805 47.1953V47.5716C248.82 47.9479 248.137 48.8512 247.531 49.9049L244.196 55.4748M244.348 54.7974V59.5393C244.348 59.9909 244.727 60.5931 245.485 60.7436V61.12C245.03 61.12 243.514 61.0447 243.135 61.0447C242.756 61.0447 241.392 61.12 240.862 61.12V60.7436C241.695 60.5931 242.074 59.9909 242.074 59.5393V55.0232" fill="#1E1E1E"/>
<path d="M173.257 47.1952H181.973C182.276 47.1952 182.731 47.1952 182.958 47.0447H183.337L183.261 49.8296H182.882C182.579 48.9264 182.2 48.249 180.533 48.249H176.743V53.1415H179.623C180.078 53.1415 180.533 53.1415 180.76 53.0662C181.442 52.9156 181.67 52.5393 181.821 52.0124H182.2C182.2 52.464 182.2 53.3673 182.2 53.6683C182.2 53.9694 182.2 54.9479 182.2 55.3995H181.897C181.745 54.8726 181.442 54.421 180.836 54.2705C180.608 54.1952 180.078 54.1952 179.699 54.1952H176.819V59.9156H180.912C182.731 59.9156 183.261 59.163 183.64 58.1092L184.019 58.1845L183.64 61.0447C182.276 60.8941 181.518 60.8941 180.002 60.8941H175.682C175.227 60.8941 173.712 60.9694 173.257 60.9694V60.5931C174.015 60.4425 174.469 60.0662 174.469 59.3135V48.8511C174.469 48.1737 174.091 47.7974 173.257 47.6468V47.1952Z" fill="#1E1E1E"/>
<path d="M151.05 48.9264C151.05 48.249 150.596 47.7974 149.762 47.6469V47.2705C150.217 47.2705 151.733 47.3458 152.187 47.3458C152.566 47.3458 154.082 47.2705 154.613 47.2705V47.6469C153.779 47.7974 153.324 48.1737 153.324 48.9264V59.4641C153.324 60.1415 153.779 60.5931 154.613 60.7436V61.12C154.158 61.12 152.642 61.0447 152.187 61.0447C151.808 61.0447 150.217 61.12 149.762 61.12V60.7436C150.596 60.5931 151.05 60.2167 151.05 59.4641V48.9264Z" fill="#1E1E1E"/>
<path d="M217.063 48.9264C217.063 48.249 216.609 47.7974 215.775 47.6469V47.2705C216.23 47.2705 217.746 47.3458 218.2 47.3458C218.579 47.3458 220.095 47.2705 220.626 47.2705V47.6469C219.792 47.7974 219.337 48.1737 219.337 48.9264V59.4641C219.337 60.1415 219.792 60.5931 220.626 60.7436V61.12C220.171 61.12 218.655 61.0447 218.2 61.0447C217.821 61.0447 216.23 61.12 215.775 61.12V60.7436C216.609 60.5931 217.063 60.2167 217.063 59.4641V48.9264Z" fill="#1E1E1E"/>
<path d="M229.114 47.2705C224.339 47.2705 223.581 47.1953 222.596 47.12V49.9802H222.975C223.354 48.7006 224.036 48.3996 224.946 48.3996H227.901V59.4641C227.901 60.2168 227.523 60.5931 226.613 60.7436V61.12C227.068 61.12 228.659 61.0447 229.038 61.0447C229.493 61.0447 230.933 61.12 231.464 61.12V60.7436C230.63 60.5931 230.175 60.1415 230.175 59.4641V48.4748H233.131C234.116 48.4748 234.798 48.7759 235.102 50.0555H235.48V47.1953C234.647 47.1953 233.889 47.2705 229.114 47.2705Z" fill="#1E1E1E"/>
<path d="M191.068 59.4641C191.068 60.1415 191.522 60.5931 192.356 60.7436V61.12C191.901 61.12 190.385 61.0447 189.931 61.0447C189.552 61.0447 188.036 61.12 187.581 61.12V60.7436C188.339 60.5931 188.794 60.2168 188.794 59.4641V48.7759C188.794 48.0985 188.415 47.7221 187.581 47.5716V47.1953C188.036 47.1953 189.552 47.2705 189.931 47.2705C190.613 47.2705 192.583 47.12 193.341 47.12C196.676 47.12 198.571 48.4748 198.571 50.8082C198.571 52.6899 197.207 53.8942 195.084 54.4211C195.084 54.4211 195.539 54.7221 196.07 55.249C196.676 55.9264 198.268 58.1845 198.95 59.0125C199.632 59.8404 200.465 60.6684 201.375 60.7436V61.0447C200.92 61.12 200.238 61.1953 199.708 61.1953C198.571 61.1953 197.661 60.8189 196.752 59.7652C195.994 58.8619 194.705 56.9049 193.948 56.0017C193.493 55.3996 192.886 54.8727 191.825 54.7221C191.598 54.7221 191.446 54.6469 191.143 54.6469V59.4641H191.068ZM191.068 53.8189C191.522 53.8942 192.204 53.8942 192.811 53.8942C195.463 53.8942 196.221 52.3888 196.221 51.1092C196.221 49.2275 194.933 48.0985 192.659 48.0985C192.204 48.0985 191.522 48.1738 190.992 48.249V53.8189H191.068Z" fill="#1E1E1E"/>
<path d="M157.947 48.9264C157.644 48.249 157.189 47.7974 156.356 47.5716V47.1953C156.886 47.1953 158.554 47.2705 158.933 47.2705C159.312 47.2705 160.752 47.1953 161.282 47.1953V47.5716C160.827 47.6469 160.297 47.8727 160.297 48.3996C160.297 48.7006 160.524 49.1522 160.903 50.0555L164.541 58.1845L167.952 50.0555C168.255 49.378 168.406 48.8512 168.406 48.4748C168.406 48.0232 168.027 47.7221 167.421 47.6469V47.2705C167.876 47.2705 169.013 47.3458 169.316 47.3458C169.619 47.3458 170.907 47.2705 171.438 47.2705V47.6469C170.604 47.8727 170.074 48.3243 169.619 49.4533L164.617 61.1953H163.48L157.947 48.9264Z" fill="#1E1E1E"/>
<path d="M170.756 11.8942C170.149 10.6147 169.316 9.71143 167.8 9.33509V8.5824C168.709 8.5824 171.817 8.65767 172.575 8.65767C173.257 8.65767 176.213 8.5824 177.198 8.5824V9.33509C176.364 9.48562 175.379 9.93724 175.379 10.8405C175.379 11.4426 175.758 12.2706 176.516 13.9265L183.337 29.3566L189.779 13.9265C190.31 12.6469 190.689 11.7437 190.689 10.991C190.689 10.163 189.931 9.63616 188.87 9.41035V8.65767C189.703 8.65767 191.825 8.73294 192.432 8.73294C193.038 8.73294 195.539 8.65767 196.449 8.65767V9.33509C194.857 9.7867 193.872 10.6899 192.962 12.7975L183.413 35.077H181.291L170.756 11.8942Z" fill="#1E1E1E"/>
<path d="M78.7467 34.1737C79.9593 33.8727 80.8688 33.3458 80.8688 31.9157V11.5178C80.8688 10.163 80.0351 9.63611 78.7467 9.25977V8.50708C79.4288 8.50708 82.233 8.58235 82.9152 8.58235C83.6731 8.58235 86.6289 8.50708 87.311 8.50708V9.25977C86.0983 9.56084 85.1131 10.0877 85.1131 11.5178V20.0232H100.423V11.5178C100.423 10.0877 99.589 9.56084 98.3005 9.25977V8.50708C98.9826 8.50708 101.863 8.58235 102.621 8.58235C103.303 8.58235 106.183 8.50708 106.789 8.50708V9.25977C105.576 9.56084 104.591 10.0877 104.591 11.5178V31.9157C104.591 33.2705 105.425 33.7974 106.789 34.1737V34.8512C106.183 34.8512 103.303 34.7759 102.621 34.7759C101.863 34.7759 98.9826 34.8512 98.3005 34.8512V34.1737C99.5132 33.8727 100.423 33.3458 100.423 31.9157V22.2813H85.1131V31.9157C85.1131 33.3458 85.9468 33.7974 87.311 34.1737V34.8512C86.6289 34.8512 83.7488 34.7759 82.9152 34.7759C82.233 34.7759 79.4288 34.8512 78.7467 34.8512V34.1737Z" fill="#1E1E1E"/>
<path d="M255.944 34.1737C257.535 33.8726 258.445 33.2705 258.445 31.8404V11.5178C258.445 10.0877 257.611 9.56082 256.019 9.25974V8.50706C256.929 8.50706 259.809 8.58232 260.567 8.58232C261.855 8.58232 265.417 8.28125 268.222 8.28125C277.62 8.28125 283.38 13.4748 283.38 21.4533C283.38 29.206 277.392 34.9264 267.691 34.9264C264.887 34.9264 261.552 34.7006 260.264 34.7006C259.506 34.7006 256.777 34.7759 255.944 34.7759V34.1737ZM262.689 32.8189C263.674 32.9694 265.417 33.12 266.857 33.12C274.74 33.12 278.908 28.378 278.908 21.7544C278.908 14.9049 274.588 10.0877 267.161 10.0877C265.645 10.0877 263.75 10.163 262.765 10.3888V32.8189H262.689Z" fill="#1E1E1E"/>
<path d="M149.307 31.7651C149.307 33.1199 150.141 33.8726 151.732 34.1737V34.9264C150.823 34.9264 147.943 34.8511 147.109 34.8511C146.427 34.8511 143.547 34.9264 142.713 34.9264V34.1737C144.153 33.8726 145.063 33.1952 145.063 31.7651V11.5931C145.063 10.3888 144.381 9.56081 142.713 9.25973V8.50704C143.623 8.50704 146.427 8.58231 147.185 8.58231C148.473 8.58231 152.187 8.35651 153.627 8.35651C159.994 8.35651 163.48 10.9909 163.48 15.4318C163.48 18.9694 160.827 21.3027 156.81 22.2812C156.81 22.2812 157.72 22.8081 158.629 23.8619C159.766 25.1415 162.798 29.5823 164.086 31.0877C165.299 32.5931 166.966 34.249 168.634 34.3242V34.9264C167.8 35.0769 166.511 35.2275 165.526 35.2275C163.404 35.2275 161.661 34.4748 159.994 32.4425C158.553 30.7113 156.052 27.0232 154.612 25.1415C153.703 24.0124 152.566 23.0339 150.52 22.7328C150.141 22.6576 149.762 22.5823 149.307 22.5823V31.7651ZM149.307 21.0769C150.141 21.1522 151.353 21.2275 152.642 21.2275C157.568 21.2275 159.16 18.3673 159.16 15.8834C159.16 12.3458 156.81 10.163 152.415 10.163C151.505 10.163 150.217 10.2382 149.307 10.464V21.0769Z" fill="#1E1E1E"/>
<path d="M232.828 31.7651C232.828 33.1199 233.661 33.8726 235.253 34.1737V34.9264C234.344 34.9264 231.464 34.8511 230.63 34.8511C229.948 34.8511 227.068 34.9264 226.234 34.9264V34.1737C227.674 33.8726 228.584 33.1952 228.584 31.7651V11.5931C228.584 10.3888 227.901 9.56081 226.234 9.25973V8.50704C227.143 8.50704 229.872 8.58231 230.706 8.58231C231.994 8.58231 235.708 8.35651 237.148 8.35651C243.514 8.35651 247 10.9909 247 15.4318C247 18.9694 244.348 21.3027 240.331 22.2812C240.331 22.2812 241.24 22.8081 242.15 23.8619C243.287 25.1415 246.394 29.5823 247.607 31.0877C248.895 32.5931 250.487 34.249 252.154 34.3242V34.9264C251.321 35.0769 250.032 35.2275 249.047 35.2275C246.849 35.2275 245.182 34.4748 243.514 32.4425C242.074 30.7113 239.573 27.0232 238.133 25.1415C237.224 24.0124 236.087 23.0339 234.04 22.7328C233.661 22.6576 233.282 22.5823 232.828 22.5823V31.7651ZM232.828 21.0769C233.661 21.1522 234.874 21.2275 236.163 21.2275C241.089 21.2275 242.68 18.3673 242.68 15.8834C242.68 12.3458 240.331 10.163 235.935 10.163C235.026 10.163 233.737 10.2382 232.828 10.464V21.0769Z" fill="#1E1E1E"/>
<path d="M110.882 34.1738C112.549 33.7974 113.458 32.7437 114.065 31.2383L122.553 10.991C122.932 10.163 123.311 8.43182 123.311 8.43182H125.661C125.661 8.43182 126.115 10.163 126.419 10.991L135.362 31.3135C135.968 32.7437 136.726 33.7221 138.469 34.1738V34.8512C137.484 34.8512 134.452 34.7759 133.77 34.7759C133.088 34.7759 130.208 34.8512 129.223 34.8512V34.1738C130.511 33.8727 130.966 33.1953 130.966 32.5931C130.966 32.0662 130.739 31.4641 130.435 30.7867L128.541 26.4211H118.688L116.945 30.7867C116.717 31.3135 116.49 31.991 116.49 32.4426C116.49 33.1953 116.869 33.7221 118.385 34.1738V34.8512C117.475 34.8512 115.202 34.7759 114.671 34.7759L110.806 34.8512L110.882 34.1738ZM127.783 24.3135L123.539 14.5286L119.597 24.3135H127.783Z" fill="#1E1E1E"/>
<path d="M194.933 34.1738C196.6 33.7974 197.51 32.7437 198.116 31.2383L206.604 10.991C206.983 10.163 207.362 8.43182 207.362 8.43182H209.712C209.712 8.43182 210.167 10.163 210.47 10.991L219.413 31.3135C220.019 32.7437 220.777 33.7221 222.52 34.1738V34.8512C221.535 34.8512 218.503 34.7759 217.821 34.7759C217.139 34.7759 214.259 34.8512 213.274 34.8512V34.1738C214.562 33.8727 215.017 33.1953 215.017 32.5931C215.017 32.0662 214.79 31.4641 214.562 30.7867L212.668 26.4211H202.815L201.072 30.7867C200.844 31.3135 200.617 31.991 200.617 32.4426C200.617 33.1953 200.996 33.7221 202.512 34.1738V34.8512C201.602 34.8512 199.329 34.7759 198.798 34.7759L194.933 34.8512V34.1738ZM211.834 24.3135L207.59 14.5286L203.649 24.3135H211.834Z" fill="#1E1E1E"/>
<path d="M0.455566 0.378052H59.5718V22.5824C59.5718 32.7436 55.7823 54.3458 30.2411 70.3781C30.2411 70.3781 2.57769 58.8619 0.455566 22.5824V0.378052Z" fill="#A51C30"/>
<path d="M0.379761 0.378052H59.496V22.5824C59.496 32.7436 55.7065 54.2705 30.1652 70.3781C30.1652 70.3781 2.50188 58.9372 0.379761 22.5824V0.378052Z" stroke="black" stroke-width="0.915"/>
<path d="M45.2475 28.905C45.2475 28.905 44.7169 30.5609 42.3674 28.8297L34.3337 28.6039C34.3337 28.6039 33.2726 28.905 33.1211 27.8512C33.1211 27.8512 33.3484 25.6684 33.1968 25.4426C33.1968 25.4426 33.2726 24.8405 32.2116 24.8405C32.2116 24.8405 30.5442 25.0663 30.5442 23.6362C30.5442 23.6362 30.241 22.1308 32.5147 22.1308C32.5147 22.1308 33.1969 22.4319 33.2726 21.5286C33.2726 21.5286 33.1968 15.3566 33.1968 14.905C33.1968 14.905 33.4242 14.3028 32.2874 14.2276C32.2874 14.2276 30.6958 14.5286 30.5442 13.5501C30.5442 13.5501 30.4684 11.9695 31.5295 11.8942C31.5295 11.8942 32.8179 11.9695 33.0453 11.6684C33.0453 11.6684 33.3484 11.819 33.2726 10.6899L33.3484 8.73293C33.3484 8.73293 33.5 8.20605 34.3337 8.28132C34.3337 8.28132 35.8495 8.35659 36.0011 8.20605C36.0011 8.20605 36.3042 7.75444 36.4558 7.6039C36.4558 7.6039 37.2137 7.52863 37.3653 7.75444C37.3653 7.75444 38.5022 8.50713 42.898 8.20605C42.898 8.20605 43.5801 8.20605 43.7317 8.43186C43.7317 8.43186 44.5654 9.03401 45.0201 8.35659C45.0201 8.35659 45.7022 8.20605 47.9001 8.28132C47.9001 8.28132 50.2496 8.88347 51.917 7.6039L52.4475 7.67917C52.4475 7.67917 53.1296 8.8082 53.5844 8.43186C53.5844 8.43186 55.0244 8.28132 55.2518 8.5824C55.2518 8.5824 55.7065 9.25981 55.4791 11.1415C55.4791 11.1415 55.176 11.9695 56.616 11.9695C56.616 11.9695 58.2076 11.6684 57.9802 13.1738C57.9802 13.1738 58.4349 14.8297 55.7823 14.6039C55.7823 14.6039 55.4791 15.0555 55.4791 15.4319C55.4791 15.4319 55.4033 20.8512 55.4033 21.4534C55.4033 21.4534 55.3275 22.2813 56.5402 22.2813C56.5402 22.2813 58.056 22.2061 58.1318 23.5609C58.1318 23.5609 58.3591 25.3673 56.0854 25.0663C56.0854 25.0663 55.4033 25.1415 55.3275 25.5931L55.2518 28.0018C55.2518 28.0018 55.3275 29.2061 53.9633 28.905C53.7359 28.905 46.4601 29.0555 45.8538 28.8297C45.6264 28.7544 45.3233 28.6792 45.2475 28.905Z" fill="white"/>
<path d="M29.7105 36.8834C29.7105 36.8834 30.0137 36.7329 30.1653 36.5071C30.1653 36.5071 31.1505 36.4318 31.3021 36.2813L34.4853 36.5071C34.4853 36.5071 37.5927 36.7329 38.9569 35.7544C38.9569 35.7544 39.4117 35.7544 39.7906 35.9049C39.7906 35.9049 40.4727 36.0555 40.6243 36.3565L42.4433 36.2813C42.4433 36.2813 43.5043 36.5823 43.4285 37.2598V38.0877C43.4285 38.0877 43.2012 39.8189 43.7317 39.8942H45.0959C45.0959 39.8942 46.2328 40.4211 46.0812 41.0985C46.0812 41.0985 46.157 42.077 45.0959 42.2275C45.0959 42.2275 44.1106 42.5286 43.7317 42.4533C43.7317 42.4533 43.4285 42.9049 43.3527 43.4318L43.2769 49.6791C43.2769 49.6791 43.2012 50.3565 44.1864 50.2813C44.1864 50.2813 45.7022 50.1307 46.0812 50.9587C46.0812 50.9587 46.4601 52.3135 45.7022 52.5393L45.0959 52.8404L43.8833 53.0662C43.8833 53.0662 43.3527 53.1415 43.2769 54.0447V55.7006C43.2769 55.7006 43.3527 56.8297 42.4433 56.8297L41.079 56.9049C41.079 56.9049 40.7759 57.206 40.0938 56.9802C40.0938 56.9802 31.9084 57.1307 31.6811 57.0555L30.6958 57.206C30.6958 57.206 29.6347 58.1845 28.8011 57.4318L28.1189 56.9049C28.1189 56.9049 27.6642 56.9802 27.4368 56.9802C27.2095 56.9049 18.4178 57.0555 18.4178 57.0555C18.4178 57.0555 16.5231 57.2813 16.3715 56.6038C16.3715 56.6038 16.1441 54.1952 16.2199 53.8942C16.2199 53.8942 16.2199 53.2168 15.7652 53.1415C15.7652 53.1415 13.8704 53.0662 13.8704 52.8404C13.8704 52.8404 12.8851 52.163 13.1883 51.4103C13.1883 51.4103 13.4915 50.4318 14.5525 50.3565C14.5525 50.3565 16.0683 50.5823 16.0683 50.1307C16.0683 50.1307 16.1441 49.8297 16.1441 49.378C16.1441 49.378 16.2199 43.7329 16.2199 43.3565C16.2199 43.3565 16.3715 42.6038 15.7652 42.6038C15.7652 42.6038 15.0831 42.8297 14.6283 42.5286C14.6283 42.5286 13.4915 42.6039 13.2641 41.7006C13.2641 41.7006 13.0367 41.0985 13.3399 40.6469C13.3399 40.6469 13.8704 39.5931 15.3862 39.9694C15.3862 39.9694 16.2199 40.1952 16.3715 39.5931L16.2957 37.335C16.2957 37.335 16.0683 36.7329 17.281 36.3565C17.281 36.3565 18.7968 36.8082 19.3273 36.0555C19.3273 36.0555 19.8578 35.0017 20.3126 35.7544C20.3126 35.7544 21.2221 36.5823 23.7231 36.5071C23.7231 36.5071 28.0432 36.206 28.1189 36.3565C28.1189 36.3565 29.18 36.5071 29.4832 36.8082L29.7105 36.8834Z" fill="white"/>
<path d="M16.6746 28.9049C16.6746 28.9049 16.1441 30.5608 13.7946 28.8297L5.76082 28.6791C5.76082 28.6791 4.69976 28.9802 4.54818 27.9264C4.54818 27.9264 4.77555 25.7436 4.62397 25.5178C4.62397 25.5178 4.69976 24.9157 3.6387 24.9157C3.6387 24.9157 2.04711 25.1415 1.97132 23.7114C1.97132 23.7114 1.66816 22.206 3.94186 22.206C3.94186 22.206 4.62397 22.5071 4.69976 21.6039C4.69976 21.6039 4.62397 15.4318 4.62397 14.9049C4.62397 14.9049 4.85134 14.3028 3.71449 14.2275C3.71449 14.2275 2.1229 14.5286 1.97132 13.4748C1.97132 13.4748 1.89553 11.8942 2.95659 11.8189C2.95659 11.8189 4.24502 11.8942 4.47239 11.5931C4.47239 11.5931 4.77555 11.7436 4.69976 10.6146L4.77555 8.65762C4.77555 8.65762 4.92713 8.13073 5.76082 8.206C5.76082 8.206 7.27662 8.28127 7.42821 8.13073C7.42821 8.13073 7.73136 7.67912 7.88294 7.52858C7.88294 7.52858 8.64085 7.45331 8.79243 7.67912C8.79243 7.67912 9.92928 8.43181 14.3251 8.13073C14.3251 8.13073 15.0072 8.13073 15.1588 8.35654C15.1588 8.35654 15.9925 8.95869 16.4472 8.28127C16.4472 8.28127 17.1293 8.13073 19.3272 8.206C19.3272 8.206 21.6767 8.80815 23.2683 7.52858L23.7989 7.60385C23.7989 7.60385 24.481 8.73289 24.9357 8.35654C24.9357 8.35654 26.3757 8.206 26.6031 8.50708C26.6031 8.50708 27.0578 9.1845 26.8305 11.0662C26.8305 11.0662 26.5273 11.8942 27.9673 11.8942C27.9673 11.8942 29.5589 11.5931 29.3315 13.0985C29.3315 13.0985 29.7863 14.7544 27.1336 14.5286C27.1336 14.5286 26.8305 14.9802 26.8305 15.3565C26.8305 15.3565 26.7547 20.7759 26.7547 21.378C26.7547 21.378 26.6789 22.206 27.8915 22.206C27.8915 22.206 29.4073 22.1307 29.4831 23.4856C29.4831 23.4856 29.7105 25.292 27.4368 24.991C27.4368 24.991 26.7547 25.0662 26.6789 25.5178L26.5273 27.9264C26.5273 27.9264 26.6031 29.1307 25.2389 28.8297C25.0115 28.8297 17.7357 28.9802 17.1293 28.7544C17.1293 28.7544 16.8262 28.6791 16.6746 28.9049Z" fill="white"/>
<path d="M45.2475 28.905C45.2475 28.905 44.7169 30.5609 42.3674 28.8297L34.3337 28.6039C34.3337 28.6039 33.2726 28.905 33.1211 27.8512C33.1211 27.8512 33.3484 25.6684 33.1968 25.4426C33.1968 25.4426 33.2726 24.8405 32.2116 24.8405C32.2116 24.8405 30.5442 25.0663 30.5442 23.6362C30.5442 23.6362 30.241 22.1308 32.5147 22.1308C32.5147 22.1308 33.1969 22.4319 33.2726 21.5286C33.2726 21.5286 33.1968 15.3566 33.1968 14.905C33.1968 14.905 33.4242 14.3028 32.2874 14.2276C32.2874 14.2276 30.6958 14.5286 30.5442 13.5501C30.5442 13.5501 30.4684 11.9695 31.5295 11.8942C31.5295 11.8942 32.8179 11.9695 33.0453 11.6684C33.0453 11.6684 33.3484 11.819 33.2726 10.6899L33.3484 8.73293C33.3484 8.73293 33.5 8.20605 34.3337 8.28132C34.3337 8.28132 35.8495 8.35659 36.0011 8.20605C36.0011 8.20605 36.3042 7.75444 36.4558 7.6039C36.4558 7.6039 37.2137 7.52863 37.3653 7.75444C37.3653 7.75444 38.5022 8.50713 42.898 8.20605C42.898 8.20605 43.5801 8.20605 43.7317 8.43186C43.7317 8.43186 44.5654 9.03401 45.0201 8.35659C45.0201 8.35659 45.7022 8.20605 47.9001 8.28132C47.9001 8.28132 50.2496 8.88347 51.917 7.6039L52.4475 7.67917C52.4475 7.67917 53.1296 8.8082 53.5844 8.43186C53.5844 8.43186 55.0244 8.28132 55.2518 8.5824C55.2518 8.5824 55.7065 9.25981 55.4791 11.1415C55.4791 11.1415 55.176 11.9695 56.616 11.9695C56.616 11.9695 58.2076 11.6684 57.9802 13.1738C57.9802 13.1738 58.4349 14.8297 55.7823 14.6039C55.7823 14.6039 55.4791 15.0555 55.4791 15.4319C55.4791 15.4319 55.4033 20.8512 55.4033 21.4534C55.4033 21.4534 55.3275 22.2813 56.5402 22.2813C56.5402 22.2813 58.056 22.2061 58.1318 23.5609C58.1318 23.5609 58.3591 25.3673 56.0854 25.0663C56.0854 25.0663 55.4033 25.1415 55.3275 25.5931L55.2518 28.0018C55.2518 28.0018 55.3275 29.2061 53.9633 28.905C53.7359 28.905 46.4601 29.0555 45.8538 28.8297C45.6264 28.7544 45.3233 28.6792 45.2475 28.905Z" fill="#1E1E1E"/>
<path d="M45.2475 28.905C45.2475 28.905 44.7169 30.5609 42.3674 28.8297L34.3337 28.6039C34.3337 28.6039 33.2726 28.905 33.1211 27.8512C33.1211 27.8512 33.3484 25.6684 33.1968 25.4426C33.1968 25.4426 33.2726 24.8405 32.2116 24.8405C32.2116 24.8405 30.5442 25.0663 30.5442 23.6362C30.5442 23.6362 30.241 22.1308 32.5147 22.1308C32.5147 22.1308 33.1969 22.4319 33.2726 21.5286C33.2726 21.5286 33.1968 15.3566 33.1968 14.905C33.1968 14.905 33.4242 14.3028 32.2874 14.2276C32.2874 14.2276 30.6958 14.5286 30.5442 13.5501C30.5442 13.5501 30.4684 11.9695 31.5295 11.8942C31.5295 11.8942 32.8179 11.9695 33.0453 11.6684C33.0453 11.6684 33.3484 11.819 33.2726 10.6899L33.3484 8.73293C33.3484 8.73293 33.5 8.20605 34.3337 8.28132C34.3337 8.28132 35.8495 8.35659 36.0011 8.20605C36.0011 8.20605 36.3042 7.75444 36.4558 7.6039C36.4558 7.6039 37.2137 7.52863 37.3653 7.75444C37.3653 7.75444 38.5022 8.50713 42.898 8.20605C42.898 8.20605 43.5801 8.20605 43.7317 8.43186C43.7317 8.43186 44.5654 9.03401 45.0201 8.35659C45.0201 8.35659 45.7022 8.20605 47.9001 8.28132C47.9001 8.28132 50.2496 8.88347 51.917 7.6039L52.4475 7.67917C52.4475 7.67917 53.1296 8.8082 53.5844 8.43186C53.5844 8.43186 55.0244 8.28132 55.2518 8.58239C55.2518 8.58239 55.7065 9.25981 55.4791 11.1415C55.4791 11.1415 55.176 11.9695 56.616 11.9695C56.616 11.9695 58.2076 11.6684 57.9802 13.1738C57.9802 13.1738 58.4349 14.8297 55.7823 14.6039C55.7823 14.6039 55.4791 15.0555 55.4791 15.4319C55.4791 15.4319 55.4033 20.8512 55.4033 21.4534C55.4033 21.4534 55.3275 22.2813 56.5402 22.2813C56.5402 22.2813 58.056 22.2061 58.1318 23.5609C58.1318 23.5609 58.3591 25.3673 56.0854 25.0663C56.0854 25.0663 55.4033 25.1415 55.3275 25.5931L55.2518 28.0018C55.2518 28.0018 55.3275 29.2061 53.9633 28.905C53.7359 28.905 46.4601 29.0555 45.8538 28.8297C45.6264 28.7544 45.3233 28.6792 45.2475 28.905Z" stroke="black" stroke-width="0.2189"/>
<path d="M36.1527 9.25977C36.1527 9.25977 36.2285 10.2383 36.2285 10.4641C36.2285 10.6899 36.0769 24.2383 36.0769 24.2383C36.0769 24.2383 36.2285 25.292 35.319 25.8189C35.319 25.8189 35.0917 25.8942 35.0159 25.2168L35.0917 10.9157C35.1674 10.9157 35.2432 9.1845 36.1527 9.25977Z" fill="white"/>
<path d="M36.1527 9.25977C36.1527 9.25977 36.2285 10.2383 36.2285 10.4641C36.2285 10.6899 36.0769 24.2383 36.0769 24.2383C36.0769 24.2383 36.2285 25.292 35.319 25.8189C35.319 25.8189 35.0917 25.8942 35.0159 25.2168L35.0917 10.9157C35.1674 10.9157 35.2432 9.1845 36.1527 9.25977Z" stroke="black" stroke-width="0.2305"/>
<path d="M34.561 25.9694C34.561 25.9694 34.6368 12.5716 34.6368 12.3458C34.561 12.12 34.7126 12.5716 34.7126 12.5716C34.7126 12.5716 34.561 10.2383 35.1673 9.25977C35.1673 9.25977 34.9399 8.43181 33.8789 9.48557L33.8031 11.292C33.8031 11.292 33.8031 12.4211 32.8178 12.3458C32.8178 12.3458 31.681 12.2705 31.1504 12.7974C31.1504 12.7974 30.8473 13.8512 31.9841 13.6254C31.9841 13.6254 33.7273 13.6254 33.8031 14.3028L33.7273 21.5286C33.7273 21.5286 34.1063 22.7329 32.742 22.7329C32.742 22.7329 31.0747 22.6576 31.1504 23.6361C31.1504 23.6361 31.4536 24.4641 32.8936 24.2383C32.8936 24.2383 33.8789 24.3888 33.8789 25.3673V27.1737C33.8789 27.1737 33.8031 27.9264 34.7126 27.9264H42.2158C42.2158 27.9264 42.5947 28.0017 42.5947 27.4748C42.5947 27.4748 42.519 27.0985 41.9884 27.0985H35.6978C35.6978 27.0985 34.6368 27.3996 34.561 25.9694Z" fill="white"/>
<path d="M36.0011 25.8942C36.0011 25.8942 35.7737 26.5716 36.5316 26.4211H41.458L42.8222 26.7222C42.8222 26.7222 44.1864 26.4211 42.8222 25.5931C42.8222 25.5931 38.4264 25.6684 38.0474 25.5179C38.0474 25.5179 37.1379 25.2921 36.9106 25.2168C36.9106 25.2921 36.4558 25.1415 36.0011 25.8942Z" fill="white"/>
<path d="M36.0011 25.8942C36.0011 25.8942 35.7737 26.5716 36.5316 26.4211H41.458L42.8222 26.7222C42.8222 26.7222 44.1864 26.4211 42.8222 25.5931C42.8222 25.5931 38.4264 25.6684 38.0474 25.5179C38.0474 25.5179 37.1379 25.2921 36.9106 25.2168C36.9106 25.2921 36.4558 25.1415 36.0011 25.8942Z" stroke="black" stroke-width="0.2305"/>
<path d="M44.1864 26.5716C44.1864 26.5716 43.277 26.5716 43.3528 27.7759C43.3528 27.7759 43.4285 28.6791 44.4138 28.6791C44.4138 28.6791 45.2475 28.5286 45.1717 27.5501C45.1717 27.6253 44.6412 26.421 44.1864 26.5716Z" fill="white"/>
<path d="M44.8686 26.12C44.8686 26.12 45.3233 25.6684 45.5507 25.6684C45.5507 25.6684 50.3255 26.12 51.1591 25.5178C51.1591 25.5178 51.917 25.3673 52.0686 25.5178C52.0686 25.5178 52.7507 26.12 52.7507 26.4211C52.7507 26.4211 52.6749 26.8727 51.8413 26.5716C51.8413 26.5716 46.4602 26.6469 46.157 26.6469C46.2328 26.6469 44.717 26.9479 44.8686 26.12Z" fill="white"/>
<path d="M44.8686 26.12C44.8686 26.12 45.3233 25.6684 45.5507 25.6684C45.5507 25.6684 50.3255 26.12 51.1591 25.5178C51.1591 25.5178 51.917 25.3673 52.0686 25.5178C52.0686 25.5178 52.7507 26.12 52.7507 26.4211C52.7507 26.4211 52.6749 26.8727 51.8413 26.5716C51.8413 26.5716 46.4602 26.6469 46.157 26.6469C46.2328 26.6469 44.717 26.9479 44.8686 26.12Z" stroke="black" stroke-width="0.2305"/>
<path d="M45.4749 27.6254C45.4749 27.6254 45.4749 27.249 46.157 27.249L52.9023 27.1738C52.9023 27.1738 53.5086 27.4748 53.5086 26.3458C53.5086 26.3458 53.736 21.1523 53.8118 15.4318C53.8118 13.7006 53.8875 11.9695 53.8118 10.3135C53.8118 10.3135 53.6602 9.63613 53.5086 9.48559C53.5086 9.48559 53.5086 8.7329 54.3423 9.03398C54.3423 9.03398 55.0244 9.10925 54.8728 10.163L54.9486 11.8189C54.9486 11.8189 54.797 12.5716 56.0855 12.3458C56.0855 12.3458 57.3739 12.5716 57.4497 13.0232C57.4497 13.0232 57.8286 14.0017 56.3128 13.8512H55.176C55.176 13.8512 54.7212 14.1523 54.8728 14.6791L54.5697 21.6791C54.5697 21.6791 54.4939 22.8834 55.6307 22.8082C55.6307 22.8082 56.8434 22.7329 57.0707 23.1092C57.0707 23.1092 57.9044 24.3135 56.0855 24.2383C56.0855 24.2383 54.9486 24.163 54.7212 24.3888C54.7212 24.3888 54.4939 24.6146 54.4181 26.8727C54.4181 26.8727 54.4939 28.2275 53.5086 28.077C53.5086 28.077 46.8391 28.1523 46.2328 28.0017C46.2328 28.0017 45.6264 28.1523 45.4749 27.6254Z" fill="white"/>
<path d="M36.9106 8.88344L36.759 24.163C36.759 24.163 36.6832 24.8404 37.8958 24.991C37.8958 24.991 39.2601 25.1415 39.639 24.991C39.639 24.991 40.5485 24.9157 42.898 25.0662C42.898 25.0662 43.5043 25.6684 43.5043 24.9157C43.5043 24.9157 43.8833 12.5716 43.7317 9.9372C43.7317 9.9372 43.6559 8.80817 42.898 8.80817C42.898 8.80817 39.2601 9.10924 38.9569 8.80817L37.5169 8.43182C37.3653 8.43182 36.8348 8.50709 36.9106 8.88344Z" fill="white"/>
<path d="M44.4137 9.63612C44.4137 9.63612 44.2622 16.7867 44.338 17.0877L44.2622 23.1092L44.0348 25.2168C44.0348 25.2168 44.338 25.6684 44.5653 25.3673C44.5653 25.3673 46.0811 24.991 47.0664 25.1415C47.0664 25.1415 50.1738 25.4426 50.7801 24.9157C50.7801 24.9157 51.2348 25.1415 51.3864 24.3888C51.3864 24.3888 51.538 11.0662 51.4622 10.8404C51.4622 10.8404 51.6138 8.95871 51.538 8.7329C51.538 8.7329 51.4622 8.28129 50.7043 8.65763C50.7043 8.65763 50.7801 9.03397 46.2327 8.88344C46.2327 8.88344 44.5653 8.88344 44.4137 9.63612Z" fill="white"/>
<path d="M52.0686 9.41032L51.9928 24.4641C51.9928 24.4641 52.3718 25.8189 52.9781 25.6684C52.9781 25.6684 53.0539 25.3673 53.1296 24.9157L53.357 10.6146C53.357 10.5394 52.9023 8.28129 52.0686 9.41032Z" fill="white"/>
<path d="M52.0686 9.41032L51.9928 24.4641C51.9928 24.4641 52.3718 25.8189 52.9781 25.6684C52.9781 25.6684 53.0539 25.3673 53.1296 24.9157L53.357 10.6146C53.357 10.5394 52.9023 8.28129 52.0686 9.41032Z" stroke="black" stroke-width="0.2305"/>
<path d="M46.1569 13.9265C46.0053 13.5501 46.9906 13.4749 46.9906 13.4749L47.4453 13.5501C47.7485 13.4749 48.1275 13.6254 48.1275 13.6254C48.4306 14.1523 47.9001 14.4533 47.9001 14.4533L47.7485 15.1308C47.6727 15.6576 47.7485 20.1738 47.7485 20.1738C47.8243 20.3996 48.2032 20.8512 48.2032 20.8512C48.2032 21.3028 47.6727 21.1523 47.6727 21.1523L46.3085 21.2275C45.8538 21.1523 46.0053 20.7007 46.0053 20.7007C46.4601 20.4749 46.6117 19.5716 46.6117 19.5716V14.8297L46.1569 13.9265Z" fill="#1E1E1E"/>
<path d="M39.7148 18.3673L39.639 19.8727L40.0937 20.5501C40.3969 20.9265 39.8664 21.2275 39.8664 21.2275L38.3506 21.077C38.0474 20.9265 38.3506 20.4748 38.3506 20.4748C38.7295 20.249 38.8053 19.6469 38.8053 19.6469L38.7295 16.8619L38.8053 14.8297C38.8053 14.6039 38.4263 14.1523 38.4263 14.1523C38.1232 14.077 38.199 13.7007 38.199 13.7007C38.2748 13.4749 39.1085 13.6254 39.1085 13.6254H41.1548C43.0495 14.2275 42.8222 15.6576 42.8222 15.6576C42.9737 17.0125 41.4579 17.6146 41.4579 17.6146L41.3822 18.3673L42.7464 20.5501C42.9737 20.7759 42.9737 20.9265 42.9737 20.9265C42.7464 21.4533 41.9885 20.9265 41.9885 20.9265L40.1695 18.2168C40.0179 17.991 39.7148 18.3673 39.7148 18.3673ZM39.7906 14.6039C39.8664 15.6576 39.8664 17.0878 39.8664 17.0878C40.7758 17.7652 41.3064 16.7867 41.3064 16.7867C42.519 15.6576 41.3064 14.6039 41.079 14.3028C40.8516 14.0017 39.9421 14.2275 39.9421 14.2275L39.7906 14.6039Z" fill="#1E1E1E"/>
<path d="M29.7105 36.8834C29.7105 36.8834 30.0137 36.7329 30.1653 36.5071C30.1653 36.5071 31.1505 36.4318 31.3021 36.2813L34.4853 36.5071C34.4853 36.5071 37.5927 36.7329 38.9569 35.7544C38.9569 35.7544 39.4117 35.7544 39.7906 35.9049C39.7906 35.9049 40.4727 36.0555 40.6243 36.3565L42.4433 36.2813C42.4433 36.2813 43.5043 36.5823 43.4285 37.2598V38.0877C43.4285 38.0877 43.2012 39.8189 43.7317 39.8942H45.0959C45.0959 39.8942 46.2328 40.4211 46.0812 41.0985C46.0812 41.0985 46.157 42.077 45.0959 42.2275C45.0959 42.2275 44.1106 42.5286 43.7317 42.4533C43.7317 42.4533 43.4285 42.9049 43.3527 43.4318L43.2769 49.6791C43.2769 49.6791 43.2012 50.3565 44.1864 50.2813C44.1864 50.2813 45.7022 50.1307 46.0812 50.9587C46.0812 50.9587 46.4601 52.3135 45.7022 52.5393L45.0959 52.8404L43.8833 53.0662C43.8833 53.0662 43.3527 53.1415 43.2769 54.0447V55.7006C43.2769 55.7006 43.3527 56.8297 42.4433 56.8297L41.079 56.9049C41.079 56.9049 40.7759 57.206 40.0938 56.9802C40.0938 56.9802 31.9084 57.1307 31.6811 57.0555L30.6958 57.206C30.6958 57.206 29.6347 58.1845 28.8011 57.4318L28.1189 56.9049C28.1189 56.9049 27.6642 56.9802 27.4368 56.9802C27.2095 56.9049 18.4178 57.0555 18.4178 57.0555C18.4178 57.0555 16.5231 57.2813 16.3715 56.6038C16.3715 56.6038 16.1441 54.1952 16.2199 53.8942C16.2199 53.8942 16.2199 53.2168 15.7652 53.1415C15.7652 53.1415 13.8704 53.0662 13.8704 52.8404C13.8704 52.8404 12.8851 52.163 13.1883 51.4103C13.1883 51.4103 13.4915 50.4318 14.5525 50.3565C14.5525 50.3565 16.0683 50.5823 16.0683 50.1307C16.0683 50.1307 16.1441 49.8297 16.1441 49.378C16.1441 49.378 16.2199 43.7329 16.2199 43.3565C16.2199 43.3565 16.3715 42.6038 15.7652 42.6038C15.7652 42.6038 15.0831 42.8297 14.6283 42.5286C14.6283 42.5286 13.4915 42.6039 13.2641 41.7006C13.2641 41.7006 13.0367 41.0985 13.3399 40.6469C13.3399 40.6469 13.8704 39.5931 15.3862 39.9694C15.3862 39.9694 16.2199 40.1952 16.3715 39.5931L16.2957 37.335C16.2957 37.335 16.0683 36.7329 17.281 36.3565C17.281 36.3565 18.7968 36.8082 19.3273 36.0555C19.3273 36.0555 19.8578 35.0017 20.3126 35.7544C20.3126 35.7544 21.2221 36.5823 23.7231 36.5071C23.7231 36.5071 28.0432 36.206 28.1189 36.3565C28.1189 36.3565 29.18 36.5071 29.4832 36.8082L29.7105 36.8834Z" fill="#1E1E1E"/>
<path d="M29.7105 36.8081C29.7105 36.8081 30.0137 36.6576 30.1653 36.4318C30.1653 36.4318 31.1505 36.3565 31.3021 36.206L34.4853 36.4318C34.4853 36.4318 37.5927 36.6576 38.9569 35.6791C38.9569 35.6791 39.4117 35.6791 39.7906 35.8296C39.7906 35.8296 40.4727 35.9802 40.6243 36.2813L42.4433 36.206C42.4433 36.206 43.5043 36.5071 43.4285 37.1845V38.0124C43.4285 38.0124 43.2012 39.7436 43.7317 39.8189H45.0959C45.0959 39.8189 46.2328 40.3458 46.0812 41.0232C46.0812 41.0232 46.157 42.0017 45.0959 42.1522C45.0959 42.1522 44.1106 42.4533 43.7317 42.378C43.7317 42.378 43.4285 42.8296 43.3527 43.3565L43.2769 49.6791C43.2769 49.6791 43.2012 50.3565 44.1864 50.2813C44.1864 50.2813 45.7022 50.1307 46.0812 50.9587C46.0812 50.9587 46.4601 52.3135 45.7022 52.5393L45.0959 52.8404L43.8833 53.0662C43.8833 53.0662 43.3527 53.1415 43.2769 54.0447V55.7006C43.2769 55.7006 43.3527 56.8296 42.4433 56.8296L41.079 56.9049C41.079 56.9049 40.7759 57.206 40.0938 56.9802C40.0938 56.9802 31.9084 57.1307 31.6811 57.0555L30.6958 57.2813C30.6958 57.2813 29.6347 58.2598 28.8011 57.5071L28.1189 56.9802C28.1189 56.9802 27.6642 57.0555 27.4368 57.0555C27.2095 56.9802 18.4178 57.1307 18.4178 57.1307C18.4178 57.1307 16.5231 57.3565 16.3715 56.6791C16.3715 56.6791 16.1441 54.2705 16.2199 53.9694C16.2199 53.9694 16.2199 53.292 15.7652 53.2167C15.7652 53.2167 13.8704 53.1415 13.8704 52.9157C13.8704 52.9157 12.8851 52.163 13.1883 51.4856C13.1883 51.4856 13.4915 50.5071 14.5525 50.4318C14.5525 50.4318 16.0683 50.6576 16.0683 50.206C16.0683 50.206 16.1441 49.9049 16.1441 49.4533C16.1441 49.4533 16.2199 43.8081 16.2199 43.4318C16.2199 43.4318 16.3715 42.6791 15.7652 42.6791C15.7652 42.6791 15.0831 42.9049 14.6283 42.6038C14.6283 42.6038 13.4915 42.6791 13.2641 41.7759C13.2641 41.7759 13.0367 41.1737 13.3399 40.7221C13.3399 40.7221 13.8704 39.6684 15.3862 40.0447C15.3862 40.0447 16.2199 40.2705 16.3715 39.6684L16.2957 37.4103C16.2957 37.4103 16.0683 36.8081 17.281 36.4318C17.281 36.4318 18.7968 36.8834 19.3273 36.1307C19.3273 36.1307 19.8578 35.077 20.3126 35.8296C20.3126 35.8296 21.2221 36.6576 23.7231 36.5823C23.7231 36.5823 28.0432 36.2813 28.1189 36.4318C28.1189 36.4318 29.18 36.5823 29.4832 36.8834L29.7105 36.8081Z" stroke="black" stroke-width="0.2189"/>
<path d="M30.999 55.5501C30.999 55.5501 31.6053 55.249 31.9842 55.3996C32.3632 55.4748 37.9717 55.3243 37.9717 55.3243C37.9717 55.3243 40.3969 55.5501 40.7759 55.1738L41.3822 54.948C41.3822 54.948 41.6096 54.6469 41.6096 54.2705C41.6096 53.8942 41.6854 52.6146 41.6854 52.6146L41.8369 52.163C41.8369 52.163 41.7612 51.7114 41.8369 38.991C41.8369 38.991 41.9885 38.0125 41.3822 37.4103C41.3822 37.4103 41.3822 37.034 41.6096 37.1093C41.8369 37.1845 41.6854 37.1845 41.6854 37.1845C41.6854 37.1845 42.5191 36.9587 42.6706 37.2598C42.6706 37.2598 43.0496 38.3888 42.7464 39.0662C42.7464 39.0662 42.6706 40.4211 43.3527 40.4211C43.3527 40.4211 43.6559 40.7222 44.1864 40.5716C44.1864 40.5716 45.3991 40.7222 45.3991 41.0985C45.3991 41.0985 45.3991 41.9265 44.5654 41.7759L43.4285 41.8512C43.4285 41.8512 42.6706 42.0017 42.7464 42.905C42.8222 43.8082 42.6706 50.2813 42.6706 50.2813C42.6706 50.2813 42.6706 51.034 43.8833 51.034C43.8833 51.034 45.3991 50.9587 45.3991 51.4103C45.3991 51.4103 45.778 52.3888 44.717 52.3888C44.717 52.3888 42.6706 52.3136 42.8222 52.9157C42.8222 52.9157 42.6706 54.2706 42.5948 54.4964C42.5948 54.4964 42.8222 55.6254 42.5191 55.7759C42.5191 55.7759 42.3675 56.3781 41.079 56.3028C41.079 56.3028 32.8179 56.2275 31.5295 56.3781C31.5295 56.3028 30.7716 56.2275 30.999 55.5501Z" fill="white"/>
<path d="M29.4832 54.6469C29.4832 54.6469 30.3169 54.7974 30.3169 55.5501C30.3169 56.3028 30.3927 56.7544 29.8622 56.8296C29.4074 56.9049 28.8769 56.7544 28.7253 56.1522C28.5737 55.5501 28.8011 54.7974 29.4832 54.6469Z" fill="white"/>
<path d="M30.4684 54.2705C30.4684 54.2705 31.3021 53.6684 31.6811 53.8189C31.6811 53.8189 36.0769 54.12 37.3653 53.8942C38.7296 53.6684 37.8959 53.8189 37.8959 53.8189C37.8959 53.8189 39.0327 53.8189 39.4117 53.3673C39.4117 53.3673 39.7148 53.292 39.9422 53.5931L40.6243 54.3458C40.6243 54.3458 40.7001 54.7974 39.8664 54.7974C39.8664 54.7974 32.06 54.7974 31.8327 54.8727C31.7569 54.8727 30.3169 55.0985 30.4684 54.2705Z" fill="white"/>
<path d="M30.4684 54.2705C30.4684 54.2705 31.3021 53.6684 31.6811 53.8189C31.6811 53.8189 36.0769 54.12 37.3653 53.8942C38.7296 53.6684 37.8959 53.8189 37.8959 53.8189C37.8959 53.8189 39.0327 53.8189 39.4117 53.3673C39.4117 53.3673 39.7148 53.292 39.9422 53.5931L40.6243 54.3458C40.6243 54.3458 40.7001 54.7974 39.8664 54.7974C39.8664 54.7974 32.06 54.7974 31.8327 54.8727C31.7569 54.8727 30.3169 55.0985 30.4684 54.2705Z" stroke="black" stroke-width="0.2305"/>
<path d="M19.0999 37.4103C19.0999 37.4103 19.4031 37.4103 19.4031 38.0125L19.3273 52.3888C19.3273 52.3888 19.4789 53.3673 18.6452 53.9695C18.6452 53.9695 18.1904 54.4964 18.1904 53.6684L18.4178 38.991C18.342 38.9157 18.4178 37.862 19.0999 37.4103Z" fill="white"/>
<path d="M19.0999 37.4103C19.0999 37.4103 19.4031 37.4103 19.4031 38.0125L19.3273 52.3888C19.3273 52.3888 19.4789 53.3673 18.6452 53.9695C18.6452 53.9695 18.1904 54.4964 18.1904 53.6684L18.4178 38.991C18.342 38.9157 18.4178 37.862 19.0999 37.4103Z" stroke="black" stroke-width="0.2305"/>
<path d="M18.3421 37.4856C18.3421 37.4856 17.7358 38.5394 17.8115 38.7652L17.7358 41.9265C17.7358 41.9265 17.66 43.9587 17.7358 44.1845C17.8115 44.4104 17.66 50.4319 17.66 50.4319C17.66 50.4319 17.5842 51.5609 17.66 51.9372V54.4964C17.66 54.4964 17.5842 55.6254 18.4179 55.3243C18.4179 55.3243 26.8306 55.0985 27.3611 55.2491C27.3611 55.2491 28.119 55.3996 27.8158 55.7759C27.8158 55.7759 27.8158 56.077 27.2853 56.0018C27.2853 56.0018 23.3442 56.3781 19.7063 56.2276C19.7063 56.2276 17.281 56.3781 17.1294 56.077C17.1294 56.077 16.7505 56.0017 16.7505 54.6469C16.7505 54.6469 16.7505 53.3673 16.6747 53.1415C16.6747 53.1415 16.7505 52.4641 15.5378 52.3136C15.5378 52.3136 13.8705 52.6147 13.7947 51.6362C13.7947 51.6362 14.022 50.9587 15.6894 51.034C15.6894 51.034 16.9021 51.2598 16.6747 50.2813L16.8263 43.2061C16.8263 43.2061 16.9779 42.0018 16.1442 41.9265C16.1442 41.9265 15.3863 41.8512 15.1589 42.0018C15.1589 42.0018 13.7947 42.0018 13.8705 41.1738C13.8705 41.1738 14.3252 40.3458 15.7652 40.4964C15.7652 40.4964 16.8263 40.7222 16.9021 39.5179C16.9021 39.5179 16.8263 37.1093 17.4326 36.9587C17.4326 37.1093 18.6452 37.1093 18.3421 37.4856Z" fill="white"/>
<path d="M19.7821 53.2168C19.7821 53.2168 20.4642 53.8942 21.5252 53.8942L28.0432 53.9695C28.0432 53.9695 28.8011 54.0448 28.7253 54.4211C28.7253 54.4211 28.6495 55.0233 27.74 54.7974L19.8578 54.7222L19.0242 54.7974C19.0242 54.7974 18.4178 54.7222 19.3273 53.5931L19.7821 53.2168Z" fill="white"/>
<path d="M19.7821 53.2168C19.7821 53.2168 20.4642 53.8942 21.5252 53.8942L28.0432 53.9695C28.0432 53.9695 28.8011 54.0448 28.7253 54.4211C28.7253 54.4211 28.6495 55.0233 27.74 54.7974L19.8578 54.7222L19.0242 54.7974C19.0242 54.7974 18.4178 54.7222 19.3273 53.5931L19.7821 53.2168Z" stroke="black" stroke-width="0.2305"/>
<path d="M39.8663 52.6146C39.8663 52.6146 40.4727 53.7436 40.7 53.8942C40.7 53.8942 41.2306 54.4963 41.079 53.4425L41.1548 39.7436C41.1548 39.7436 41.0032 39.292 41.1548 38.5393L40.5484 37.4856C40.5484 37.4856 39.9421 37.0339 39.9421 37.7866L39.8663 52.3888V52.6146Z" fill="white"/>
<path d="M39.8663 52.6146C39.8663 52.6146 40.4727 53.7436 40.7 53.8942C40.7 53.8942 41.2306 54.4963 41.079 53.4425L41.1548 39.7436C41.1548 39.7436 41.0032 39.292 41.1548 38.5393L40.5484 37.4856C40.5484 37.4856 39.9421 37.0339 39.9421 37.7866L39.8663 52.3888V52.6146Z" stroke="black" stroke-width="0.2305"/>
<path d="M29.2558 46.0662C29.2558 46.0662 29.3316 47.1952 29.18 48.3243C29.1042 48.9264 29.4073 51.7114 29.1042 53.1415C29.1042 53.1415 29.0284 53.5931 28.0431 53.2167C28.0431 53.2167 21.9041 53.3673 21.7526 53.1415C21.7526 53.1415 20.0852 53.2167 19.9336 52.3135C19.9336 52.3135 20.161 45.7651 20.0094 45.5393C20.0094 45.5393 19.9336 42.0017 20.0094 41.6253C20.0094 41.6253 20.161 38.3135 20.0852 37.9372C20.0852 37.9372 20.161 37.1845 20.0094 36.8081C20.0094 36.8081 20.0094 36.3565 20.8431 36.5823C20.8431 36.5823 21.1462 37.1092 22.7378 36.8834C22.7378 36.8834 23.8747 37.0339 25.0115 36.9587C25.0115 36.9587 27.4368 36.7329 28.0431 36.9587C28.0431 36.9587 29.0284 36.7329 29.2558 37.7866L29.18 40.7221L29.4831 41.7006L29.7863 41.4748L29.9379 40.7221L30.0137 37.5608C30.0137 37.5608 30.241 36.9587 30.9989 36.8834C30.9989 36.8834 32.2116 36.7329 32.3632 36.8081C32.5147 36.8834 35.1674 37.0339 35.8495 36.8834C36.5316 36.7329 36.6832 37.335 38.8811 36.2812C38.8811 36.2812 39.4874 36.3565 39.4874 36.7329C39.4874 36.7329 39.26 40.7974 39.4874 41.5501C39.4874 41.5501 39.4874 49.0017 39.3358 49.5286L39.4116 51.9372C39.4116 51.9372 39.4874 52.9909 37.82 53.0662C37.82 53.0662 38.8811 53.2167 32.2874 52.9909C32.2874 52.9909 31.2263 52.9157 30.0895 53.4425C30.0895 53.4425 29.8621 53.3673 29.8621 52.7651C29.8621 52.7651 30.0895 50.5071 29.8621 48.3243L29.7863 45.9157L29.2558 46.0662Z" fill="white"/>
<path d="M24.9357 42.6791C24.9357 42.6791 25.0873 46.2167 24.9357 46.6683L24.86 47.421C24.86 47.421 25.0873 47.9479 25.3147 48.0984C25.3147 48.0984 25.5421 48.7759 25.0115 48.7006C25.0115 48.7006 23.7989 48.6253 23.4957 48.6253C23.4957 48.6253 22.8136 48.6253 23.4957 47.7974C23.4957 47.7974 23.7231 47.4963 23.6473 46.5931C23.6473 46.5931 23.6473 42.6038 23.7231 42.378C23.7231 42.378 23.7989 41.8511 23.4957 41.7006L22.8894 41.7759L22.2073 42.4533C22.2073 42.4533 22.0557 43.1307 21.7526 42.378V42.0017L22.2073 40.8726L22.5105 40.7974C22.5105 40.7974 22.9652 41.0984 23.3442 41.1737H25.6179L26.4515 40.7974C26.4515 40.7974 26.7547 40.8726 26.6789 41.249C26.6789 41.249 26.8305 42.378 26.2242 42.4533C26.2242 42.4533 25.8452 42.3027 25.6179 41.7759C25.6179 41.9264 25.0115 41.6253 24.9357 42.6791Z" fill="#1E1E1E"/>
<path d="M35.5463 41.3996C35.5463 41.3996 33.7273 41.249 33.6516 43.206C33.6516 43.206 33.4242 44.5609 35.4705 45.3888C35.4705 45.3888 36.9863 46.0662 36.8347 46.9695C36.8347 46.9695 36.6074 48.6254 35.0916 47.7974C35.0916 47.7974 34.3337 47.4211 34.4095 46.9695C34.4095 46.9695 34.1821 46.4426 33.8789 46.5179C33.8789 46.5179 33.5758 46.5931 33.7273 48.1738C33.7273 48.1738 33.7273 48.7759 34.4095 48.1738L34.7884 48.249C34.7884 48.249 36.0768 49.3028 37.2137 48.0232C37.2137 48.0232 38.4263 46.8942 37.5169 45.6146C37.5169 45.6146 36.9105 44.6361 35.7737 44.1845C35.7737 44.1845 34.7126 43.7329 34.4852 42.905C34.4852 42.905 34.7884 41.4748 36.0768 42.2275C36.0768 42.2275 36.5316 42.8297 36.8347 42.905C36.8347 42.905 37.2137 42.905 37.1379 42.077L37.0621 41.3996C37.0621 41.3996 36.9863 40.8727 36.3042 41.3996C36.3042 41.3996 35.6979 41.6254 35.5463 41.3996Z" fill="#1E1E1E"/>
<path d="M29.7104 40.4211C30.0136 40.6469 30.0894 41.1737 30.0894 41.1737C31.0746 43.7329 31.8325 47.3458 31.8325 47.3458C32.0599 47.7974 32.5147 48.1737 32.5147 48.1737C33.3483 48.4748 32.5147 48.7006 32.5147 48.7006C32.2115 48.8512 31.0746 48.6254 31.0746 48.6254C30.4683 48.5501 30.7715 48.3243 30.7715 48.3243C30.9989 48.0985 30.8473 47.12 30.8473 47.12C30.7715 46.7436 30.3925 46.1415 30.3925 46.1415C30.1652 46.0662 29.862 46.4426 29.862 46.4426C29.862 46.4426 29.3315 46.6684 29.2557 46.4426C29.1799 46.2168 28.8767 46.0662 28.8767 46.0662C28.2704 46.0662 28.043 47.4963 28.043 47.4963C28.3462 48.7006 28.043 48.4748 28.043 48.4748C27.7399 48.8512 26.8304 48.5501 26.8304 48.5501C26.3757 48.4748 26.6788 48.0985 26.6788 48.0985C27.2094 48.0232 27.3609 47.4211 27.3609 47.4211C27.5883 47.12 29.1041 40.8727 29.1041 40.8727C29.2557 40.7221 29.3315 40.1953 29.7104 40.4211ZM28.9525 43.5824C28.8767 43.8082 28.5736 45.163 28.5736 45.163L28.8767 45.6146C28.8767 45.6146 29.6346 45.6899 29.9378 45.6899C30.241 45.6899 30.241 45.4641 30.241 45.2383C30.241 45.0125 29.7104 43.5824 29.7104 43.5824L29.4831 43.2813L28.9525 43.5824Z" fill="#1E1E1E"/>
<path d="M16.6746 28.9049C16.6746 28.9049 16.1441 30.5608 13.7946 28.8297L5.76082 28.6791C5.76082 28.6791 4.69976 28.9802 4.54818 27.9264C4.54818 27.9264 4.77555 25.7436 4.62397 25.5178C4.62397 25.5178 4.69976 24.9157 3.6387 24.9157C3.6387 24.9157 2.04711 25.1415 1.97132 23.7114C1.97132 23.7114 1.66816 22.206 3.94186 22.206C3.94186 22.206 4.62397 22.5071 4.69976 21.6039C4.69976 21.6039 4.62397 15.4318 4.62397 14.9049C4.62397 14.9049 4.85134 14.3028 3.71449 14.2275C3.71449 14.2275 2.1229 14.5286 1.97132 13.4748C1.97132 13.4748 1.89553 11.8942 2.95659 11.8189C2.95659 11.8189 4.24502 11.8942 4.47239 11.5931C4.47239 11.5931 4.77555 11.7436 4.69976 10.6146L4.77555 8.65762C4.77555 8.65762 4.92713 8.13073 5.76082 8.206C5.76082 8.206 7.27662 8.28127 7.42821 8.13073C7.42821 8.13073 7.73136 7.67912 7.88294 7.52858C7.88294 7.52858 8.64085 7.45331 8.79243 7.67912C8.79243 7.67912 9.92928 8.43181 14.3251 8.13073C14.3251 8.13073 15.0072 8.13073 15.1588 8.35654C15.1588 8.35654 15.9925 8.95869 16.4472 8.28127C16.4472 8.28127 17.1293 8.13073 19.3272 8.206C19.3272 8.206 21.6767 8.80815 23.2683 7.52858L23.7989 7.60385C23.7989 7.60385 24.481 8.73289 24.9357 8.35654C24.9357 8.35654 26.3757 8.206 26.6031 8.50708C26.6031 8.50708 27.0578 9.1845 26.8305 11.0662C26.8305 11.0662 26.5273 11.8942 27.9673 11.8942C27.9673 11.8942 29.5589 11.5931 29.3315 13.0985C29.3315 13.0985 29.7863 14.7544 27.1336 14.5286C27.1336 14.5286 26.8305 14.9802 26.8305 15.3565C26.8305 15.3565 26.7547 20.7759 26.7547 21.378C26.7547 21.378 26.6789 22.206 27.8915 22.206C27.8915 22.206 29.4073 22.1307 29.4831 23.4856C29.4831 23.4856 29.7105 25.292 27.4368 24.991C27.4368 24.991 26.7547 25.0662 26.6789 25.5178L26.5273 27.9264C26.5273 27.9264 26.6031 29.1307 25.2389 28.8297C25.0115 28.8297 17.7357 28.9802 17.1293 28.7544C17.1293 28.7544 16.8262 28.6791 16.6746 28.9049Z" fill="#1E1E1E"/>
<path d="M16.6746 28.9049C16.6746 28.9049 16.1441 30.5608 13.7946 28.8297L5.76082 28.6791C5.76082 28.6791 4.69976 28.9802 4.54818 27.9264C4.54818 27.9264 4.77555 25.7436 4.62397 25.5178C4.62397 25.5178 4.69976 24.9157 3.6387 24.9157C3.6387 24.9157 2.04711 25.1415 1.97132 23.7114C1.97132 23.7114 1.66816 22.206 3.94186 22.206C3.94186 22.206 4.62397 22.5071 4.69976 21.6039C4.69976 21.6039 4.62397 15.4318 4.62397 14.9049C4.62397 14.9049 4.85134 14.3028 3.71449 14.2275C3.71449 14.2275 2.1229 14.5286 1.97132 13.4748C1.97132 13.4748 1.89553 11.8942 2.95659 11.8189C2.95659 11.8189 4.24502 11.8942 4.47239 11.5931C4.47239 11.5931 4.77555 11.7436 4.69976 10.6146L4.77555 8.65762C4.77555 8.65762 4.92713 8.13073 5.76082 8.206C5.76082 8.206 7.27662 8.28127 7.4282 8.13073C7.4282 8.13073 7.73136 7.67912 7.88294 7.52858C7.88294 7.52858 8.64085 7.45331 8.79243 7.67912C8.79243 7.67912 9.92928 8.43181 14.3251 8.13073C14.3251 8.13073 15.0072 8.13073 15.1588 8.35654C15.1588 8.35654 15.9925 8.95869 16.4472 8.28127C16.4472 8.28127 17.1293 8.13073 19.3272 8.206C19.3272 8.206 21.6767 8.80815 23.2683 7.52858L23.7989 7.60385C23.7989 7.60385 24.481 8.73289 24.9357 8.35654C24.9357 8.35654 26.3757 8.206 26.6031 8.50708C26.6031 8.50708 27.0578 9.1845 26.8305 11.0662C26.8305 11.0662 26.5273 11.8942 27.9673 11.8942C27.9673 11.8942 29.5589 11.5931 29.3315 13.0985C29.3315 13.0985 29.7863 14.7544 27.1336 14.5286C27.1336 14.5286 26.8305 14.9802 26.8305 15.3565C26.8305 15.3565 26.7547 20.7759 26.7547 21.378C26.7547 21.378 26.6789 22.206 27.8915 22.206C27.8915 22.206 29.4073 22.1307 29.4831 23.4856C29.4831 23.4856 29.7105 25.292 27.4368 24.991C27.4368 24.991 26.7547 25.0662 26.6789 25.5178L26.5273 27.9264C26.5273 27.9264 26.6031 29.1307 25.2389 28.8297C25.0115 28.8297 17.7356 28.9802 17.1293 28.7544C17.1293 28.7544 16.8262 28.6791 16.6746 28.9049Z" stroke="black" stroke-width="0.2189"/>
<path d="M7.65565 9.25977C7.65565 9.25977 7.73144 10.2383 7.73144 10.4641C7.73144 10.6899 7.57986 24.2383 7.57986 24.2383C7.57986 24.2383 7.73144 25.292 6.82196 25.8189C6.82196 25.8189 6.59459 25.8942 6.5188 25.2168L6.59459 10.9157C6.67038 10.9157 6.74617 9.1845 7.65565 9.25977Z" fill="white"/>
<path d="M7.65565 9.25977C7.65565 9.25977 7.73144 10.2383 7.73144 10.4641C7.73144 10.6899 7.57986 24.2383 7.57986 24.2383C7.57986 24.2383 7.73144 25.292 6.82196 25.8189C6.82196 25.8189 6.59459 25.8942 6.5188 25.2168L6.59459 10.9157C6.67038 10.9157 6.74617 9.1845 7.65565 9.25977Z" stroke="black" stroke-width="0.2305"/>
<path d="M6.06393 25.9695C6.06393 25.9695 6.13972 12.5716 6.13972 12.2705C6.06393 12.0447 6.13972 12.4963 6.13972 12.4963C6.13972 12.4963 5.98814 10.163 6.59446 9.18451C6.59446 9.18451 6.36709 8.35655 5.30603 9.41032V11.3673C5.30603 11.3673 5.30603 12.4963 4.32076 12.4211C4.32076 12.4211 3.18391 12.3458 2.65338 12.8727C2.65338 12.8727 2.35022 13.9264 3.48707 13.7006C3.48707 13.7006 5.23024 13.7006 5.30603 14.3781L5.23024 21.6039C5.23024 21.6039 5.60919 22.8082 4.24497 22.8082C4.24497 22.8082 2.65338 22.7329 2.65338 23.7114C2.65338 23.7114 2.95654 24.5393 4.39655 24.3135C4.39655 24.3135 5.38182 24.5393 5.38182 25.4426V27.249C5.38182 27.249 5.30603 28.0017 6.21551 28.0017H13.6429C13.6429 28.0017 14.0219 28.077 14.0219 27.5501C14.0219 27.5501 13.9461 27.1738 13.4156 27.1738L7.20078 27.0985C7.20078 27.0985 6.13972 27.3996 6.06393 25.9695Z" fill="white"/>
<path d="M7.35253 26.0447C7.35253 26.0447 7.12516 26.7221 7.88306 26.5715H12.8094L14.1736 26.8726C14.1736 26.8726 15.5379 26.5715 14.1736 25.7436C14.1736 25.7436 9.77781 25.8189 9.39886 25.6683C9.39886 25.6683 8.48938 25.4425 8.26201 25.3672C8.26201 25.4425 7.80727 25.2167 7.35253 26.0447Z" fill="white"/>
<path d="M7.35253 26.0447C7.35253 26.0447 7.12516 26.7221 7.88306 26.5715H12.8094L14.1736 26.8726C14.1736 26.8726 15.5379 26.5715 14.1736 25.7436C14.1736 25.7436 9.77781 25.8189 9.39886 25.6683C9.39886 25.6683 8.48938 25.4425 8.26201 25.3672C8.26201 25.4425 7.80727 25.2167 7.35253 26.0447Z" stroke="black" stroke-width="0.2305"/>
<path d="M15.5378 26.7221C15.5378 26.7221 14.6283 26.7221 14.7041 27.9264C14.7041 27.9264 14.7799 28.8296 15.7651 28.8296C15.7651 28.8296 16.5988 28.6791 16.523 27.7006C16.523 27.7006 15.9925 26.4963 15.5378 26.7221Z" fill="white"/>
<path d="M16.2199 26.1952C16.2199 26.1952 16.6746 25.7436 16.902 25.7436C16.902 25.7436 21.6768 26.1952 22.5105 25.5931C22.5105 25.5931 23.1926 25.4426 23.4199 25.5931C23.4199 25.5931 24.1021 26.1952 24.1021 26.4963C24.1021 26.4963 24.0263 26.9479 23.1926 26.7221C23.1926 26.7221 17.7357 26.7974 17.5083 26.7974C17.5841 26.7221 16.0683 27.0985 16.2199 26.1952Z" fill="white"/>
<path d="M16.2199 26.1952C16.2199 26.1952 16.6746 25.7436 16.902 25.7436C16.902 25.7436 21.6768 26.1952 22.5105 25.5931C22.5105 25.5931 23.1926 25.4426 23.4199 25.5931C23.4199 25.5931 24.1021 26.1952 24.1021 26.4963C24.1021 26.4963 24.0263 26.9479 23.1926 26.7221C23.1926 26.7221 17.7357 26.7974 17.5083 26.7974C17.5841 26.7221 16.0683 27.0985 16.2199 26.1952Z" stroke="black" stroke-width="0.2305"/>
<path d="M16.9778 27.6254C16.9778 27.6254 16.9778 27.249 17.6599 27.249L24.4052 27.1738C24.4052 27.1738 25.0115 27.4748 25.0115 26.3458C25.0115 26.3458 25.2389 21.1523 25.3147 15.4318C25.3147 13.7006 25.3905 11.9695 25.3147 10.3135C25.3147 10.3135 25.1631 9.63613 25.0115 9.48559C25.0115 9.48559 25.0115 8.7329 25.8452 9.03398C25.8452 9.03398 26.5273 9.10925 26.3757 10.163L26.4515 11.8189C26.4515 11.8189 26.3 12.4963 27.5884 12.3458C27.5884 12.3458 28.8768 12.4963 28.9526 13.0232C28.9526 13.0232 29.3316 14.0017 27.8158 13.8512H26.6789C26.6789 13.8512 26.2242 14.1523 26.3757 14.6791L26.2242 21.6039C26.2242 21.6039 26.1484 22.8082 27.2852 22.7329C27.2852 22.7329 28.4979 22.6576 28.7252 23.034C28.7252 23.034 29.5589 24.2383 27.74 24.163C27.74 24.163 26.6031 24.0877 26.3757 24.3135C26.3757 24.3135 26.2242 24.5394 26.0726 26.7974C26.0726 26.7974 26.1484 28.1523 25.1631 28.0017C25.1631 28.0017 18.4936 28.077 17.8873 27.9265C17.7357 28.0017 17.0536 28.1523 16.9778 27.6254Z" fill="white"/>
<path d="M8.3377 8.88344L8.18612 24.163C8.18612 24.163 8.11033 24.8404 9.32297 24.991C9.32297 24.991 10.6872 25.1415 11.0661 24.991C11.0661 24.991 11.9756 24.9157 14.3251 25.0662C14.3251 25.0662 14.9314 25.6684 14.9314 24.9157C14.9314 24.9157 15.3104 12.5716 15.1588 9.9372C15.1588 9.9372 15.083 8.80817 14.3251 8.80817C14.3251 8.80817 10.6872 9.10924 10.384 8.80817L8.94402 8.43182C8.86823 8.43182 8.3377 8.50709 8.3377 8.88344Z" fill="white"/>
<path d="M23.5715 9.41032L23.4957 24.4641C23.4957 24.4641 23.8747 25.8189 24.481 25.6684C24.481 25.6684 24.5568 25.3673 24.6326 24.9157L24.8599 10.6146C24.8599 10.5394 24.4052 8.28129 23.5715 9.41032Z" fill="white"/>
<path d="M23.5715 9.41032L23.4957 24.4641C23.4957 24.4641 23.8747 25.8189 24.481 25.6684C24.481 25.6684 24.5568 25.3673 24.6326 24.9157L24.8599 10.6146C24.8599 10.5394 24.4052 8.28129 23.5715 9.41032Z" stroke="black" stroke-width="0.2305"/>
<path d="M15.9167 9.56087C15.9167 9.56087 15.7651 16.7114 15.8409 17.0125L15.7651 23.034L15.5377 25.1415C15.5377 25.1415 15.8409 25.5931 16.0683 25.292C16.0683 25.292 17.5841 24.9157 18.5693 25.0662C18.5693 25.0662 21.6767 25.3673 22.283 24.8404C22.283 24.8404 22.7378 25.0662 22.8894 24.3136C22.8894 24.3136 23.1167 10.991 22.9651 10.7652C22.9651 10.7652 23.1925 8.88345 23.0409 8.65764C23.0409 8.65764 22.9651 8.20603 22.2072 8.58237C22.2072 8.58237 22.283 8.95872 17.7356 8.80818C17.7356 8.80818 15.9925 8.80818 15.9167 9.56087Z" fill="white"/>
<path d="M14.4768 13.9265L14.022 14.8297C14.022 14.8297 12.961 19.4211 12.4304 20.3996C12.4304 20.3996 12.3546 21.3781 11.5209 20.6254C11.5209 20.6254 9.62619 14.7544 9.5504 14.6039L8.94408 14.1523C8.94408 14.1523 8.56513 13.6254 9.24724 13.5501L10.9904 13.6254C10.9904 13.6254 11.5967 14.077 10.763 14.6039C10.763 14.6039 10.8388 15.3566 11.8999 18.292C11.8999 18.292 12.2031 19.4211 12.5062 18.5931L13.4915 15.206L13.1883 14.2275C13.1883 14.2275 12.8852 13.7759 13.3399 13.7006C13.3399 13.7006 14.3252 13.5501 14.4768 13.9265Z" fill="#1E1E1E"/>
<path d="M17.2051 14.7544L17.1293 19.7974L16.9777 20.1738C16.9777 20.1738 16.523 20.7759 16.8262 20.8512C16.8262 20.8512 16.3714 21.1523 19.8578 21.1523C19.8578 21.1523 21.222 21.3781 20.843 19.6469C20.843 19.6469 20.6915 19.0447 20.2367 19.948C20.2367 19.948 20.0851 20.7006 18.342 20.4748C18.342 20.4748 17.963 20.1738 17.963 19.7974V17.6899C17.963 17.6899 17.8872 17.163 18.7209 17.2383C18.7209 17.2383 19.6304 17.8404 19.782 17.5394C19.782 17.5394 20.0851 16.7867 19.782 16.3351C19.782 16.3351 19.3272 16.2598 19.3272 16.4856C19.3272 16.4856 19.0241 17.0877 18.1904 16.7114C18.1904 16.7114 17.8114 15.9587 18.0388 15.3566C18.0388 15.3566 17.963 14.1523 18.7209 14.2275C18.7209 14.2275 19.7062 14.4533 19.782 14.6791C19.782 14.6791 20.0093 15.2813 20.2367 14.6039L20.0093 13.7759C20.0093 13.7759 19.8578 13.4748 19.6304 13.5501C19.6304 13.5501 18.0388 13.7759 17.8114 13.6254L16.6746 13.7006C16.6746 13.7006 16.523 14.1523 17.0535 14.3781C17.0535 14.4533 17.2051 14.5286 17.2051 14.7544Z" fill="#1E1E1E"/>
</g>
<defs>
<clipPath id="clip0_136_51">
<rect width="284" height="71" fill="white"/>
</clipPath>
</defs>
</svg>
