<svg width="409" height="94" viewBox="0 0 409 94" fill="none" xmlns="http://www.w3.org/2000/svg">
<g clip-path="url(#clip0_136_49)">
<path d="M193.453 0L196.918 12.2759C197.33 13.849 197.742 15.4216 198.016 16.7212C198.188 17.4732 198.325 18.1913 198.463 18.8757H198.531C198.669 18.1918 198.806 17.4737 198.978 16.7212C199.252 15.4216 199.595 13.849 200.041 12.2759L203.506 0H210.608V24.4489H205.977V10.4293C205.977 9.4376 205.977 8.20667 206.08 7.14682C206.114 6.56543 206.149 5.9502 206.183 5.36881H206.114C206.011 5.9502 205.874 6.49681 205.77 7.04436C205.53 8.00175 205.29 9.09591 205.05 10.0195L200.829 24.4485H196.061L191.944 10.0195C191.669 9.09638 191.463 8.00222 191.223 7.04436C191.12 6.49728 190.983 5.9502 190.88 5.36881H190.811C190.846 5.9502 190.88 6.56543 190.914 7.14682C190.949 8.20667 191.017 9.4376 191.017 10.4293V24.4489H186.454V0H193.453ZM224.334 22.4998H224.265C223.83 23.2063 223.214 23.7846 222.481 24.1754C221.419 24.6677 220.255 24.9021 219.085 24.8592C215.448 24.8592 212.943 23.0126 212.943 19.4909C212.943 17.5761 213.698 16.2766 215.002 15.4216C216.306 14.5667 218.02 14.1221 220.011 13.8485C222.962 13.4382 224.266 13.199 224.266 11.8651C224.266 10.5656 223.306 9.77929 221.316 9.77929C219.12 9.77929 218.056 10.5313 217.92 12.2411H213.77C213.779 11.4704 213.956 10.7109 214.288 10.0145C214.62 9.31811 215.098 8.7013 215.691 8.2062C216.926 7.14635 218.779 6.4625 221.35 6.4625C226.633 6.4625 228.762 8.78759 228.762 12.9255V21.8503C228.762 23.1837 228.968 23.9705 229.38 24.2783V24.4494H224.885C224.568 23.8445 224.38 23.1807 224.334 22.4998ZM223.304 20.5508C223.634 20.2655 223.899 19.9138 224.082 19.5189C224.266 19.1241 224.363 18.695 224.368 18.26V15.628C223.544 16.1407 222.309 16.38 221.108 16.654C218.638 17.2011 217.471 17.7481 217.471 19.3894C217.471 21.0306 218.569 21.612 220.216 21.612C221.343 21.6591 222.446 21.28 223.305 20.5508H223.304ZM230.407 18.7727H234.73C235.039 20.8243 236.446 21.6792 238.573 21.6792C240.631 21.6792 241.798 20.8929 241.798 19.662C241.798 18.8414 241.215 18.3624 240.391 18.055C239.333 17.7466 238.255 17.5067 237.166 17.3369C235.553 17.029 234.044 16.6873 232.877 15.9006C231.676 15.1143 230.921 13.9515 230.921 12.0367C230.882 11.2113 231.054 10.3897 231.42 9.64827C231.786 8.90688 232.334 8.26993 233.014 7.79683C234.318 6.87375 236.068 6.42913 238.093 6.42913C242.793 6.42913 245.264 8.65176 245.641 12.2421H241.421C241.181 10.3273 240.048 9.6773 238.025 9.6773C236.172 9.6773 235.007 10.3268 235.007 11.6264C235.007 12.4127 235.59 12.7892 236.516 13.0627C237.408 13.3706 238.609 13.5073 239.844 13.7809C241.319 14.0887 242.863 14.4304 244.065 15.2172C245.266 16.0378 246.055 17.2687 246.055 19.3203C246.076 20.1247 245.9 20.9221 245.541 21.643C245.182 22.3639 244.652 22.9864 243.996 23.4563C242.414 24.5036 240.542 25.0296 238.643 24.9603C233.495 24.9617 230.681 22.5342 230.407 18.7727ZM247.082 18.7727H251.405C251.714 20.8243 253.121 21.6792 255.248 21.6792C257.307 21.6792 258.474 20.8929 258.474 19.662C258.474 18.8414 257.89 18.3624 257.067 18.055C256.008 17.7466 254.931 17.5067 253.842 17.3369C252.229 17.029 250.719 16.6873 249.553 15.9006C248.352 15.1143 247.597 13.9515 247.597 12.0367C247.558 11.2113 247.73 10.3897 248.096 9.64827C248.462 8.90688 249.01 8.26993 249.69 7.79683C250.994 6.87375 252.744 6.42913 254.768 6.42913C259.468 6.42913 261.939 8.65176 262.317 12.2421H258.096C257.856 10.3273 256.724 9.6773 254.7 9.6773C252.847 9.6773 251.682 10.3268 251.682 11.6264C251.682 12.4127 252.265 12.7892 253.191 13.0627C254.083 13.3706 255.284 13.5073 256.519 13.7809C257.995 14.0887 259.538 14.4304 260.74 15.2172C261.941 16.0378 262.73 17.2687 262.73 19.3203C262.751 20.1247 262.575 20.9221 262.216 21.643C261.857 22.3639 261.327 22.9864 260.672 23.4563C259.089 24.5035 257.217 25.0296 255.319 24.9603C250.17 24.9617 247.357 22.5342 247.084 18.7727H247.082ZM275.389 22.4998H275.32C274.885 23.2063 274.269 23.7846 273.536 24.1754C272.474 24.6677 271.311 24.9021 270.14 24.8592C266.503 24.8592 263.998 23.0126 263.998 19.4909C263.998 17.5761 264.753 16.2766 266.057 15.4216C267.361 14.5667 269.075 14.1221 271.067 13.8485C274.018 13.4382 275.322 13.199 275.322 11.8651C275.322 10.5656 274.361 9.77929 272.371 9.77929C270.175 9.77929 269.111 10.5313 268.975 12.2411H264.825C264.835 11.4704 265.011 10.7109 265.343 10.0145C265.675 9.31811 266.153 8.7013 266.746 8.2062C267.981 7.14635 269.834 6.4625 272.406 6.4625C277.688 6.4625 279.817 8.78759 279.817 12.9255V21.8503C279.817 23.1837 280.023 23.9705 280.435 24.2783V24.4494H275.94C275.623 23.8445 275.436 23.1806 275.39 22.4998H275.389ZM274.359 20.5508C274.689 20.2655 274.954 19.9138 275.138 19.5189C275.321 19.1241 275.418 18.695 275.423 18.26V15.628C274.6 16.1407 273.364 16.38 272.163 16.654C269.693 17.2011 268.526 17.7481 268.526 19.3894C268.526 21.0306 269.624 21.612 271.271 21.612C272.398 21.6592 273.502 21.2802 274.36 20.5508H274.359ZM284.138 22.2606C282.505 20.4683 281.632 18.1153 281.702 15.6952C281.642 13.2728 282.5 10.9169 284.104 9.09591C284.916 8.2252 285.906 7.537 287.006 7.0771C288.107 6.61719 289.293 6.39614 290.486 6.42866C292.467 6.36985 294.408 6.99829 295.976 8.20667C297.348 9.40391 298.238 11.0562 298.481 12.8573H293.916C293.803 12.0915 293.413 11.3934 292.818 10.8954C292.224 10.3975 291.467 10.1343 290.69 10.1558C287.842 10.1558 286.435 12.2416 286.435 15.6952C286.435 19.0463 287.739 21.2346 290.622 21.2346C292.543 21.2346 293.847 20.2772 294.156 18.2595H298.651C298.535 20.0719 297.71 21.7665 296.352 22.9783C294.791 24.3164 292.783 25.024 290.725 24.9617C289.498 24.9991 288.277 24.7778 287.142 24.3123C286.007 23.8469 284.984 23.1477 284.139 22.2606H284.138ZM305.24 9.19837C306.544 7.31837 307.917 6.42866 310.353 6.42866C311.175 6.40442 311.993 6.55679 312.75 6.87542C313.508 7.19406 314.188 7.67149 314.745 8.27529C315.873 9.586 316.472 11.2678 316.426 12.9941V24.4494H311.759V13.677C311.759 11.7622 310.696 10.4627 308.705 10.4627C306.647 10.4627 305.137 12.0696 305.137 14.4976V24.448H300.471V0H305.14V9.19837H305.24ZM330.22 22.3974H330.117C329.573 23.2231 328.821 23.8917 327.935 24.3359C327.05 24.78 326.063 24.9842 325.073 24.9279C321.127 24.9279 318.966 22.5003 318.966 18.6021V6.909H323.598V17.813C323.598 19.8645 324.49 20.993 326.514 20.993C328.71 20.993 330.049 19.3518 330.049 17.0267V6.909H334.716V24.4508H330.22L330.22 22.3974ZM336.431 18.7727H340.754C341.063 20.8243 342.47 21.6792 344.597 21.6792C346.656 21.6792 347.823 20.8929 347.823 19.662C347.823 18.8414 347.239 18.3624 346.416 18.055C345.358 17.7466 344.28 17.5067 343.191 17.3369C341.578 17.029 340.068 16.6873 338.902 15.9006C337.7 15.1143 336.946 13.9515 336.946 12.0367C336.907 11.2113 337.079 10.3897 337.445 9.64827C337.811 8.90688 338.359 8.26993 339.039 7.79683C340.343 6.87375 342.093 6.42913 344.117 6.42913C348.818 6.42913 351.288 8.65176 351.666 12.2421H347.445C347.205 10.3273 346.073 9.6773 344.049 9.6773C342.196 9.6773 341.031 10.3268 341.031 11.6264C341.031 12.4127 341.614 12.7892 342.54 13.0627C343.433 13.3706 344.633 13.5073 345.868 13.7809C347.344 14.0887 348.887 14.4304 350.089 15.2172C351.29 16.0378 352.079 17.2687 352.079 19.3203C352.101 20.1247 351.924 20.9221 351.565 21.643C351.206 22.3639 350.676 22.9864 350.021 23.4563C348.438 24.5036 346.566 25.0296 344.668 24.9603C339.519 24.9617 336.705 22.5342 336.431 18.7727ZM355.645 22.2606C354.066 20.6194 353.277 18.26 353.277 15.6613C353.223 13.2439 354.094 10.8966 355.714 9.09591C356.507 8.23815 357.474 7.55716 358.55 7.09751C359.626 6.63787 360.788 6.40994 361.958 6.42866C364.806 6.42866 366.934 7.48851 368.409 9.36945C369.885 11.2504 370.64 13.849 370.64 16.9947H357.876C358.253 19.7301 359.694 21.3714 362.371 21.3714C364.224 21.3714 365.253 20.5507 365.766 19.2169H370.366C370.046 20.8186 369.156 22.2513 367.861 23.2518C366.288 24.418 364.365 25.0205 362.405 24.9617C359.454 24.9617 357.223 23.9357 355.645 22.2606ZM357.944 13.7804H365.768C365.63 11.5244 364.189 10.0204 362.028 10.0204C359.557 10.019 358.356 11.4548 357.944 13.7804ZM373.659 6.909V1.43632H378.223V6.909H381.241V10.1572H378.223V19.2869C378.223 20.6203 378.909 21.0306 379.973 21.0306H380.865C381.026 21.0362 381.187 21.0247 381.345 20.9963V24.4156C381.095 24.4448 380.843 24.4563 380.591 24.4499C380.076 24.4842 379.356 24.4842 378.429 24.4842C377.292 24.5348 376.166 24.2364 375.204 23.6292C374.278 22.9797 373.66 21.9194 373.66 20.2782V10.1558H371.224V6.909H373.659ZM384.502 6.909V1.43632H389.065V6.909H392.084V10.1572H389.065V19.2869C389.065 20.6203 389.752 21.0306 390.816 21.0306H391.707C391.868 21.0362 392.03 21.0247 392.188 20.9963V24.4156C391.938 24.4448 391.685 24.4563 391.433 24.4499C390.919 24.4842 390.198 24.4842 389.272 24.4842C388.134 24.5348 387.009 24.2364 386.047 23.6292C385.12 22.9797 384.502 21.9194 384.502 20.2782V10.1558H382.067V6.909H384.502ZM393.354 18.7742H397.677C397.986 20.8257 399.393 21.6806 401.52 21.6806C403.579 21.6806 404.745 20.8943 404.745 19.6634C404.745 18.8428 404.162 18.3638 403.339 18.0565C402.28 17.748 401.203 17.5081 400.113 17.3383C398.501 17.0305 396.991 16.6888 395.824 15.902C394.624 15.1157 393.868 13.9529 393.868 12.0381C393.83 11.2128 394.001 10.3911 394.367 9.64968C394.733 8.90829 395.282 8.27134 395.961 7.79824C397.266 6.87516 399.015 6.43054 401.04 6.43054C405.741 6.43054 408.211 8.65317 408.589 12.2435H404.37C404.13 10.3287 402.998 9.67871 400.974 9.67871C399.121 9.67871 397.956 10.3283 397.956 11.6278C397.956 12.4141 398.539 12.7906 399.465 13.0641C400.358 13.372 401.558 13.5087 402.793 13.7823C404.269 14.0901 405.812 14.4318 407.014 15.2186C408.215 16.0392 409.004 17.2702 409.004 19.3217C409.025 20.1261 408.849 20.9235 408.49 21.6444C408.131 22.3653 407.601 22.9878 406.945 23.4577C405.363 24.505 403.491 25.031 401.592 24.9617C396.442 24.9617 393.628 22.5342 393.353 18.7727L393.354 18.7742ZM191.429 31.7838V56.2327H186.454V31.7838H191.429ZM199.32 41.0846C199.832 40.1666 200.592 39.4106 201.515 38.9027C202.437 38.3948 203.484 38.1556 204.536 38.2124C205.358 38.1879 206.176 38.3401 206.934 38.6587C207.692 38.9772 208.373 39.4547 208.929 40.0586C210.058 41.3693 210.657 43.0511 210.611 44.7774V56.2327H205.944V45.4612C205.944 43.5464 204.88 42.2469 202.89 42.2469C200.831 42.2469 199.322 43.8543 199.322 46.2818V56.2322H194.656V38.6909H199.219V41.0846H199.32ZM212.187 50.5565H216.511C216.82 52.608 218.226 53.463 220.353 53.463C222.412 53.463 223.579 52.6767 223.579 51.4457C223.579 50.6251 222.995 50.1462 222.172 49.8388C221.113 49.5303 220.036 49.2904 218.947 49.1206C217.334 48.8128 215.824 48.4711 214.658 47.6843C213.456 46.898 212.702 45.7352 212.702 43.8205C212.663 42.9951 212.835 42.1734 213.201 41.432C213.567 40.6906 214.115 40.0537 214.795 39.5806C216.099 38.6575 217.849 38.2129 219.873 38.2129C224.574 38.2129 227.044 40.4355 227.422 44.0258H223.202C222.961 42.1111 221.829 41.4611 219.806 41.4611C217.953 41.4611 216.787 42.1106 216.787 43.4101C216.787 44.1965 217.371 44.5729 218.297 44.8465C219.189 45.1543 220.39 45.2911 221.625 45.5646C223.1 45.8725 224.643 46.2142 225.845 47.0009C227.046 47.8216 227.836 49.0525 227.836 51.104C227.857 51.9085 227.68 52.7059 227.322 53.4267C226.963 54.1476 226.433 54.7702 225.777 55.2401C224.195 56.2873 222.322 56.8134 220.424 56.744C215.275 56.7454 212.462 54.3179 212.187 50.5565ZM230.784 38.6913V33.2196H235.348V38.6909H238.366V41.939H235.348V51.0688C235.348 52.4022 236.034 52.8125 237.098 52.8125H237.99C238.151 52.8181 238.312 52.8066 238.47 52.7782V56.1974C238.22 56.2267 237.968 56.2382 237.716 56.2317C237.201 56.2661 236.481 56.2661 235.554 56.2661C234.417 56.3166 233.291 56.0182 232.329 55.4111C231.403 54.7616 230.785 53.7013 230.785 52.06V41.939H228.349V38.6909L230.784 38.6913ZM245.229 32.4338V36.6055H240.563V32.4338H245.229ZM245.229 38.6913V56.2331H240.563V38.6909L245.229 38.6913ZM249.45 38.6913V33.2196H254.013V38.6909H257.035V41.939H254.016V51.0688C254.016 52.4022 254.703 52.8125 255.767 52.8125H256.658C256.819 52.8181 256.98 52.8066 257.138 52.7782V56.1974C256.888 56.2267 256.636 56.2381 256.384 56.2317C255.869 56.2661 255.148 56.2661 254.222 56.2661C253.084 56.3166 251.958 56.0182 250.996 55.4111C250.07 54.7616 249.452 53.7013 249.452 52.06V41.939H247.016V38.6909L249.45 38.6913ZM270.346 54.1811H270.24C269.696 55.0072 268.943 55.676 268.057 56.1202C267.172 56.5644 266.184 56.7684 265.194 56.7116C261.248 56.7116 259.086 54.2836 259.086 50.3859V38.6909H263.719V49.5986C263.719 51.6502 264.611 52.7787 266.635 52.7787C268.831 52.7787 270.17 51.1374 270.17 48.8123V38.6909H274.836V56.2327H270.341L270.346 54.1811ZM279.061 38.6913V33.2196H283.625V38.6909H286.643V41.939H283.625V51.0688C283.625 52.4022 284.311 52.8125 285.374 52.8125H286.267C286.427 52.819 286.589 52.8085 286.747 52.781V56.2003C286.497 56.2295 286.245 56.241 285.993 56.2346C285.478 56.2689 284.757 56.2689 283.831 56.2689C282.693 56.3195 281.567 56.0211 280.605 55.4139C279.679 54.7644 279.061 53.7041 279.061 52.0628V41.939H276.625V38.6909L279.061 38.6913ZM290.178 54.0444C288.6 52.4031 287.811 50.0437 287.811 47.4451C287.757 45.0277 288.628 42.6803 290.247 40.8797C291.041 40.0219 292.007 39.341 293.084 38.8813C294.16 38.4217 295.321 38.1937 296.492 38.2124C299.339 38.2124 301.467 39.2723 302.943 41.1532C304.418 43.0341 305.173 45.6328 305.173 48.7785H292.407C292.784 51.5139 294.225 53.1551 296.902 53.1551C298.755 53.1551 299.784 52.3345 300.297 51.0006H304.895C304.575 52.6023 303.686 54.035 302.39 55.0356C300.817 56.2017 298.895 56.8042 296.935 56.7454C293.987 56.7454 291.757 55.7194 290.178 54.0439V54.0444ZM292.477 45.5642H300.3C300.163 43.3082 298.722 41.8042 296.56 41.8042C294.09 41.8023 292.889 43.24 292.477 45.5637V45.5642ZM314.402 54.0444C313.56 53.1734 312.899 52.1449 312.457 51.018C312.015 49.8912 311.802 48.6884 311.829 47.4789C311.781 45.0272 312.706 42.6556 314.402 40.8797C315.267 40.011 316.3 39.3265 317.439 38.8678C318.577 38.4091 319.797 38.1856 321.025 38.211C322.257 38.1888 323.481 38.4134 324.625 38.8716C325.768 39.3298 326.807 40.0122 327.681 40.8783C329.354 42.6667 330.265 45.0329 330.22 47.4775C330.271 49.9132 329.359 52.2712 327.681 54.0429C326.814 54.9204 325.777 55.6125 324.632 56.077C323.488 56.5415 322.26 56.7686 321.025 56.7445C319.794 56.7721 318.571 56.5466 317.431 56.0819C316.292 55.6172 315.261 54.9235 314.402 54.0439V54.0444ZM325.485 47.4789C325.485 44.0254 323.907 41.7341 321.025 41.7341C318.143 41.7341 316.564 44.0254 316.564 47.4789C316.564 50.8982 318.143 53.1894 321.025 53.1894C323.907 53.1894 325.485 50.8982 325.485 47.4789ZM333.205 38.6899V37.1168C333.205 34.9628 334.029 33.5265 335.436 32.6716C336.808 31.851 338.764 31.5774 341.029 31.8167V35.407C338.833 35.3045 337.872 35.5438 337.872 37.3904V38.6899H341.031V42.041H337.871V56.2317H333.205V42.042H330.803V38.6909L333.205 38.6899ZM198.806 63.567V67.7388H191.429V88.016H186.454V67.7388H179.075V63.567H198.806ZM198.291 85.8276C196.713 84.1864 195.924 81.827 195.924 79.2284C195.87 76.811 196.741 74.4636 198.36 72.6629C199.154 71.8052 200.121 71.1242 201.197 70.6646C202.273 70.2049 203.434 69.977 204.605 69.9957C207.453 69.9957 209.58 71.0555 211.056 72.9365C212.532 74.8174 213.286 77.416 213.286 80.5618H200.522C200.899 83.2972 202.34 84.9384 205.017 84.9384C206.87 84.9384 207.899 84.1178 208.412 82.7839H213.01C212.69 84.3856 211.801 85.8183 210.505 86.8189C208.932 87.985 207.01 88.5875 205.05 88.5287C202.1 88.5287 199.87 87.5032 198.291 85.8276ZM200.59 77.3474H208.414C208.277 75.0914 206.835 73.5874 204.674 73.5874C202.203 73.586 201.002 75.0223 200.59 77.3474ZM216.82 85.8276C215.187 84.0354 214.313 81.6823 214.384 79.2622C214.324 76.8399 215.182 74.4839 216.786 72.6629C217.598 71.7922 218.588 71.104 219.688 70.6441C220.789 70.1842 221.975 69.9632 223.168 69.9957C225.149 69.9369 227.09 70.5653 228.658 71.7737C230.03 72.9709 230.92 74.6232 231.163 76.4244H226.599C226.487 75.6585 226.096 74.9604 225.502 74.4625C224.907 73.9645 224.15 73.7013 223.374 73.7228C220.526 73.7228 219.119 75.8087 219.119 79.2622C219.119 82.6133 220.423 84.8016 223.305 84.8016C225.227 84.8016 226.531 83.8442 226.839 81.8265H231.334C231.218 83.6391 230.393 85.3337 229.035 86.5453C227.474 87.8835 225.466 88.591 223.408 88.5287C222.181 88.5665 220.959 88.3454 219.824 87.8799C218.689 87.4144 217.665 86.715 216.82 85.8276H216.82ZM237.922 72.7654C239.226 70.8854 240.599 69.9957 243.035 69.9957C243.857 69.9714 244.675 70.1238 245.433 70.4424C246.19 70.761 246.871 71.2385 247.427 71.8423C248.555 73.153 249.154 74.8348 249.108 76.5611V88.016H244.443V77.245C244.443 75.3302 243.379 74.0306 241.389 74.0306C239.33 74.0306 237.82 75.6376 237.82 78.0656V88.016H233.154V63.567H237.82V72.7654H237.922ZM256.451 72.8679C256.963 71.9499 257.723 71.1939 258.645 70.686C259.568 70.1781 260.615 69.9389 261.667 69.9957C262.489 69.9715 263.307 70.1238 264.064 70.4425C264.822 70.7611 265.502 71.2385 266.058 71.8423C267.188 73.1534 267.787 74.8359 267.741 76.563V88.0178H263.072V77.245C263.072 75.3302 262.008 74.0306 260.018 74.0306C257.959 74.0306 256.45 75.6376 256.45 78.0656V88.016H251.783V70.4742H256.346V72.8679H256.451ZM272.132 85.8276C271.289 84.9567 270.628 83.9282 270.186 82.8014C269.744 81.6745 269.531 80.4717 269.558 79.2622C269.51 76.8105 270.435 74.4389 272.132 72.6629C272.997 71.7945 274.03 71.1103 275.168 70.6518C276.306 70.1933 277.526 69.9701 278.754 69.9957C279.986 69.9735 281.21 70.1982 282.354 70.6563C283.497 71.1145 284.537 71.7969 285.411 72.6629C287.084 74.4514 287.994 76.8176 287.95 79.2622C288 81.6979 287.088 84.0558 285.411 85.8276C284.543 86.7051 283.506 87.3972 282.362 87.8617C281.217 88.3262 279.99 88.5533 278.754 88.5292C277.523 88.5568 276.3 88.3311 275.16 87.8663C274.021 87.4014 272.989 86.7075 272.131 85.8276H272.132ZM283.215 79.2622C283.215 75.8087 281.636 73.5174 278.754 73.5174C275.872 73.5174 274.293 75.8087 274.293 79.2622C274.293 82.6815 275.872 84.9727 278.754 84.9727C281.636 84.9727 283.214 82.6819 283.214 79.2622H283.215ZM294.641 63.567V88.016H289.973V63.567H294.641ZM299.239 85.8276C298.396 84.9567 297.735 83.9282 297.293 82.8014C296.851 81.6745 296.638 80.4717 296.665 79.2622C296.617 76.8105 297.542 74.4389 299.239 72.6629C300.104 71.7945 301.137 71.1103 302.275 70.6518C303.414 70.1933 304.634 69.9701 305.861 69.9957C307.093 69.9735 308.317 70.1981 309.461 70.6563C310.604 71.1145 311.644 71.7968 312.518 72.6629C314.191 74.4514 315.101 76.8176 315.057 79.2622C315.107 81.6979 314.195 84.0558 312.518 85.8276C311.651 86.7051 310.613 87.3972 309.469 87.8617C308.324 88.3262 307.097 88.5533 305.861 88.5292C304.63 88.5568 303.406 88.3312 302.267 87.8664C301.127 87.4015 300.096 86.7075 299.238 85.8276H299.239ZM310.322 79.2622C310.322 75.8087 308.744 73.5174 305.861 73.5174C302.979 73.5174 301.4 75.8087 301.4 79.2622C301.4 82.6815 302.979 84.9727 305.861 84.9727C308.743 84.9727 310.32 82.6819 310.32 79.2622H310.322ZM316.532 88.5287H321.164C321.542 89.6229 322.502 90.4778 324.699 90.4778C327.306 90.4778 328.61 89.2812 328.61 86.8189V84.9041H328.508C327.956 85.5808 327.252 86.119 326.454 86.4753C325.655 86.8317 324.784 86.9962 323.91 86.9556C322.919 86.9621 321.936 86.7685 321.022 86.3865C320.108 86.0045 319.281 85.442 318.591 84.733C317.784 83.9272 317.152 82.9651 316.733 81.9061C316.314 80.8471 316.117 79.7138 316.155 78.576C316.155 75.9774 316.944 73.8229 318.317 72.3184C319.001 71.5574 319.843 70.9548 320.786 70.5531C321.728 70.1514 322.748 69.9604 323.772 69.9933C325.968 69.9933 327.581 70.8483 328.645 72.3184H328.713V70.4718H333.208V86.6797C333.208 89.1416 332.454 90.8158 331.115 92.0138C329.639 93.3815 327.375 93.9972 324.767 93.9972C319.893 94 317.046 91.9485 316.531 88.5287H316.532ZM327.889 81.8265C328.567 80.8435 328.904 79.6669 328.85 78.4754C328.893 77.275 328.531 76.0948 327.82 75.1243C327.441 74.6609 326.958 74.2926 326.409 74.0491C325.861 73.8056 325.263 73.6937 324.664 73.7223C322.262 73.7223 320.718 75.5346 320.718 78.5097C320.718 81.5177 322.262 83.2285 324.698 83.2285C325.303 83.2607 325.907 83.1506 326.461 82.9072C327.015 82.6637 327.504 82.2937 327.888 81.827L327.889 81.8265ZM338.046 90.1013C339.932 90.1013 340.653 89.1783 340.653 87.7076C340.643 87.1166 340.551 86.5298 340.379 85.964C340.139 85.2458 339.83 84.2884 339.315 82.956L334.58 70.4751H339.485L342.093 78.3739C342.367 79.1945 342.607 80.1176 342.847 80.9044C342.95 81.349 343.087 81.7593 343.225 82.2039H343.293C343.396 81.7593 343.499 81.349 343.602 80.9044C343.799 80.0492 344.039 79.2046 344.322 78.3739L346.793 70.4751H351.494L345.352 88.4611C344.666 90.4445 344.014 91.7435 343.088 92.5642C342.128 93.4191 340.927 93.7612 339.142 93.7612H336.397V90.1023L338.046 90.1013ZM88.3209 88.0155H107.948V29.3388H88.32L88.3209 88.0155ZM117.761 19.5586H166.826V0H117.76L117.761 19.5586ZM88.32 0H107.947V19.5591H88.32V0ZM58.8798 88.016H78.5065V0H58.8798V88.016ZM29.4397 68.4569H49.0663V0H29.4402L29.4397 68.4569ZM0 88.016H19.6266V0H0V88.016ZM117.76 88.016H137.387V29.3388H117.76V88.016Z" fill="black"/>
</g>
<defs>
<clipPath id="clip0_136_49">
<rect width="409" height="94" fill="white"/>
</clipPath>
</defs>
</svg>
